<?xml version="1.0" encoding="UTF-8" standalone="no"?>
<svg width="83px" height="102px" viewBox="0 0 83 102" version="1.1" xmlns="http://www.w3.org/2000/svg" xmlns:xlink="http://www.w3.org/1999/xlink">
    <!-- Generator: Sketch 39.1 (31720) - http://www.bohemiancoding.com/sketch -->
    <title>app</title>
    <desc>Created with Sketch.</desc>
    <defs>
        <linearGradient x1="0%" y1="0%" x2="100%" y2="100%" id="linearGradient-1">
            <stop stop-color="#F6F6F6" offset="0%"></stop>
            <stop stop-color="#CECECE" offset="100%"></stop>
        </linearGradient>
        <linearGradient x1="21.3994966%" y1="80.1338005%" x2="50%" y2="50%" id="linearGradient-2">
            <stop stop-color="#EEEEEE" offset="0%"></stop>
            <stop stop-color="#E5E4E4" offset="100%"></stop>
        </linearGradient>
        <linearGradient x1="50%" y1="20.0711367%" x2="50%" y2="120.071137%" id="linearGradient-3">
            <stop stop-color="#8C8C8C" offset="0%"></stop>
            <stop stop-color="#969696" offset="100%"></stop>
        </linearGradient>
        <linearGradient x1="50%" y1="20.0711367%" x2="50%" y2="120.071137%" id="linearGradient-4">
            <stop stop-color="#2E2E2E" offset="0%"></stop>
            <stop stop-color="#969696" offset="100%"></stop>
        </linearGradient>
        <linearGradient x1="50%" y1="20.0711367%" x2="50%" y2="120.071137%" id="linearGradient-5">
            <stop stop-color="#2F5175" offset="0%"></stop>
            <stop stop-color="#969696" offset="100%"></stop>
        </linearGradient>
    </defs>
    <g id="Icons" stroke="none" stroke-width="1" fill="none" fill-rule="evenodd">
        <g id="app">
            <path d="M53.9462592,0 L0,0 L0,102 L83,102 L83,28.0763718 L53.9462592,28.076373 L53.9462592,-1.11022302e-16 Z" id="Combined-Shape" fill="url(#linearGradient-1)"></path>
            <polygon id="Path-2-Copy" fill="url(#linearGradient-2)" points="56.4957983 0 56.4957983 25.6054138 82.9155003 25.6054127"></polygon>
            <text id="APP" font-family="SourceSansPro-Light, Source Sans Pro" font-size="20" font-weight="300" fill="#6B6B6B">
                <tspan x="28" y="90">APP</tspan>
            </text>
            <g id="Gear" transform="translate(36.000000, 33.000000)" fill="url(#linearGradient-3)">
                <path d="M14.5572829,5.24445917 C14.7996223,5.17333774 15.0448524,5.10880119 15.2927583,5.05106076 L16.9306539,0.216070739 L22.8095933,0.730411286 L23.5756507,5.72829692 C23.9712326,5.8927091 24.3570685,6.07533365 24.7320699,6.27510105 L28.7610368,3.8268245 L32.9339539,7.9997416 L30.4174936,12.1409138 C30.5388263,12.3891409 30.6524421,12.6417009 30.7580356,12.8982937 L35.2366855,13.5049664 L35.8535493,19.3740338 L31.3309612,20.9946253 C31.2368113,21.3658533 31.1265656,21.7308232 31.0009947,22.0887775 L34.1338617,25.6566363 L30.74896,30.4907768 L25.9447323,28.6190645 C25.6980662,28.7861084 25.4453984,28.9452066 25.1871114,29.0959831 L25.2122455,34.1358541 L19.4861462,35.563531 L17.041582,30.9101376 L17.1830459,30.8748667 C16.8450311,30.8452915 16.5106419,30.8033304 16.1803513,30.7494486 L16.2802343,30.8003414 L12.8515383,34.7845613 L7.59335605,32.1053836 L8.80132074,26.9896447 L8.89834802,27.0390825 C8.72322268,26.8652455 8.55301106,26.6866186 8.38793476,26.5034197 L8.46911721,26.6946736 L3.28157658,27.5428398 L0.975717482,22.1105762 L5.09475123,19.0387475 C5.08517976,18.9373068 5.07678387,18.8355312 5.06957706,18.7334337 L0.61028414,16.1884263 L2.23692932,10.5156404 L7.16027026,10.7121545 C7.33957246,10.4390317 7.52891743,10.1728755 7.72779197,9.9141901 L6.04377447,5.10155019 L10.9931016,1.88741959 L14.5572829,5.24445917 Z M18.2637486,23.6153993 C21.4596115,23.6153993 24.0503703,21.0693088 24.0503703,17.9285469 C24.0503703,14.7877851 21.4596115,12.2416946 18.2637486,12.2416946 C15.0678857,12.2416946 12.4771269,14.7877851 12.4771269,17.9285469 C12.4771269,21.0693088 15.0678857,23.6153993 18.2637486,23.6153993 Z" id="Combined-Shape"></path>
            </g>
            <g id="Gear" transform="translate(27.379489, 57.379489) rotate(11.000000) translate(-27.379489, -57.379489) translate(19.379489, 49.379489)" fill="url(#linearGradient-4)">
                <path d="M6.4699035,2.33087074 C6.57760991,2.29926122 6.68660107,2.2705783 6.79678145,2.24491589 L7.52473506,0.0960314396 L10.137597,0.324627238 L10.478067,2.54590974 C10.6538812,2.61898182 10.8253638,2.70014829 10.9920311,2.7889338 L12.782683,1.70081089 L14.6373128,3.55544071 L13.5188861,5.39596171 C13.5728117,5.50628482 13.6233076,5.61853373 13.670238,5.73257496 L15.6607491,6.00220727 L15.9349108,8.61068171 L13.9248717,9.33094457 C13.8830273,9.49593481 13.8340292,9.65814364 13.7782199,9.81723447 L15.1706052,11.4029495 L13.6662045,13.5514564 L11.5309921,12.7195842 C11.4213628,12.7938259 11.309066,12.8645363 11.1942717,12.9315481 L11.2054424,15.1714907 L8.66050944,15.8060138 L7.57403646,13.7378389 L7.63690928,13.722163 C7.4866805,13.7090184 7.33806306,13.6903691 7.19126723,13.6664216 L7.23565968,13.6890406 L5.71179482,15.459805 L3.37482491,14.2690594 L3.91169811,11.9953976 L3.95482134,12.01737 C3.87698786,11.9401091 3.80133825,11.8607194 3.72797101,11.7792976 L3.76405209,11.8642994 L1.45847848,12.2412621 L0.433652214,9.82692275 L2.26433388,8.46166555 C2.26007989,8.41658082 2.25634838,8.37134718 2.25314536,8.32597054 L0.271237396,7.19485613 L0.994190807,4.67361796 L3.18234234,4.76095755 C3.26203221,4.63956964 3.34618552,4.52127798 3.43457421,4.40630671 L2.68612199,2.26735564 L4.88582292,0.838853153 L6.4699035,2.33087074 Z M8.11722159,10.495733 C9.5376051,10.495733 10.6890534,9.36413723 10.6890534,7.96824309 C10.6890534,6.57234894 9.5376051,5.44075316 8.11722159,5.44075316 C6.69683808,5.44075316 5.54538974,6.57234894 5.54538974,7.96824309 C5.54538974,9.36413723 6.69683808,10.495733 8.11722159,10.495733 Z" id="Combined-Shape"></path>
            </g>
            <g id="Gear" transform="translate(27.627449, 36.753462) rotate(23.000000) translate(-27.627449, -36.753462) translate(13.627449, 22.753462)" fill="url(#linearGradient-5)">
                <path d="M11.3223311,4.0790238 C11.5108173,4.02370713 11.7015519,3.97351203 11.8943675,3.92860281 L13.1682864,0.168055019 L17.7407948,0.568097667 L18.3366172,4.45534205 C18.644292,4.58321819 18.9443866,4.72525951 19.2360544,4.88063415 L22.3696953,2.97641906 L25.6152974,6.22202124 L23.6580506,9.44293299 C23.7524204,9.63599844 23.8407883,9.83243403 23.9229166,10.0320062 L27.4063109,10.5038627 L27.8860939,15.068693 L24.3685254,16.329153 C24.2952977,16.6178859 24.2095511,16.9017514 24.1118848,17.1801603 L26.5485591,19.9551615 L23.9158578,23.7150486 L20.1792362,22.2592724 C19.9873849,22.3891954 19.7908654,22.5129385 19.5899755,22.6302091 L19.6095243,26.5501087 L15.1558915,27.6605241 L13.2545638,24.0412182 L13.3645912,24.0137852 C13.1016909,23.9907822 12.8416103,23.9581459 12.5847177,23.9162378 L12.6624044,23.9558211 L9.99564093,27.0546588 L5.90594359,24.9708539 L6.84547168,20.9919459 L6.92093735,21.0303975 C6.78472875,20.8951909 6.65234194,20.7562589 6.52394926,20.6137709 L6.58709116,20.7625239 L2.55233734,21.4222087 L0.758891375,17.1971148 L3.96258429,14.8079147 C3.95513981,14.7290164 3.94860967,14.6498576 3.94300438,14.5704484 L0.474665442,12.5909982 L1.73983391,8.17883144 L5.56909909,8.33167571 C5.70855636,8.11924688 5.85582467,7.91223647 6.01050487,7.71103675 L4.70071348,3.96787237 L8.55019011,1.46799302 L11.3223311,4.0790238 Z M14.2051378,18.3675328 C16.6908089,18.3675328 18.7058435,16.3872401 18.7058435,13.9444254 C18.7058435,11.5016107 16.6908089,9.52131803 14.2051378,9.52131803 C11.7194666,9.52131803 9.70443204,11.5016107 9.70443204,13.9444254 C9.70443204,16.3872401 11.7194666,18.3675328 14.2051378,18.3675328 Z" id="Combined-Shape"></path>
            </g>
        </g>
    </g>
</svg>