<?xml version="1.0" encoding="UTF-8" standalone="no"?>
<svg width="83px" height="102px" viewBox="0 0 83 102" version="1.1" xmlns="http://www.w3.org/2000/svg" xmlns:xlink="http://www.w3.org/1999/xlink">
    <!-- Generator: Sketch 39.1 (31720) - http://www.bohemiancoding.com/sketch -->
    <title>class</title>
    <desc>Created with Sketch.</desc>
    <defs>
        <linearGradient x1="0%" y1="0%" x2="100%" y2="100%" id="linearGradient-1">
            <stop stop-color="#F6F6F6" offset="0%"></stop>
            <stop stop-color="#CECECE" offset="100%"></stop>
        </linearGradient>
        <linearGradient x1="21.3994966%" y1="80.1338005%" x2="50%" y2="50%" id="linearGradient-2">
            <stop stop-color="#EEEEEE" offset="0%"></stop>
            <stop stop-color="#E5E4E4" offset="100%"></stop>
        </linearGradient>
        <radialGradient cx="50%" cy="50%" fx="50%" fy="50%" r="50%" id="radialGradient-3">
            <stop stop-color="#848484" offset="0%"></stop>
            <stop stop-color="#CACACA" offset="100%"></stop>
        </radialGradient>
        <radialGradient cx="50%" cy="22.25071%" fx="50%" fy="22.25071%" r="77.74929%" id="radialGradient-4">
            <stop stop-color="#FFFFFF" offset="0%"></stop>
            <stop stop-color="#898989" offset="100%"></stop>
        </radialGradient>
        <linearGradient x1="50%" y1="0%" x2="75.301368%" y2="23.8651893%" id="linearGradient-5">
            <stop stop-color="#EEEEEE" offset="0%"></stop>
            <stop stop-color="#D8D8D8" offset="100%"></stop>
        </linearGradient>
        <linearGradient x1="50%" y1="0%" x2="50%" y2="100%" id="linearGradient-6">
            <stop stop-color="#8A551A" offset="0%"></stop>
            <stop stop-color="#361904" offset="100%"></stop>
        </linearGradient>
        <linearGradient x1="100%" y1="43.4853878%" x2="40.7091725%" y2="58.5169969%" id="linearGradient-7">
            <stop stop-color="#AEAEAE" offset="0%"></stop>
            <stop stop-color="#D1D1D1" offset="100%"></stop>
        </linearGradient>
    </defs>
    <g id="Icons" stroke="none" stroke-width="1" fill="none" fill-rule="evenodd">
        <g id="class">
            <path d="M53.9462592,0 L0,0 L0,102 L83,102 L83,28.0763718 L53.9462592,28.076373 L53.9462592,-1.11022302e-16 Z" id="Combined-Shape" fill="url(#linearGradient-1)"></path>
            <polygon id="Path-2-Copy" fill="url(#linearGradient-2)" points="56.4957983 0 56.4957983 25.6054138 82.9155003 25.6054127"></polygon>
            <text font-family="SourceSansPro-Bold, Source Sans Pro" font-size="20" font-weight="bold" fill="#2D8515">
                <tspan x="19" y="88">class</tspan>
            </text>
            <g id="JavaCup" transform="translate(16.000000, 39.000000)">
                <ellipse id="Oval-22" fill="url(#radialGradient-3)" cx="26" cy="19.5" rx="26" ry="6.5"></ellipse>
                <path d="M37.7036518,3.63636405 C37.7219024,4.54593367 37.6733858,5.52905854 37.5506923,6.5909095 C36.3136561,17.2968429 32.4844408,20.0000004 26.2349028,20.0000004 C19.9853649,20.0000004 15.6064906,17.6860259 14.9191133,6.5909095 C14.8532168,5.52725801 14.8465158,4.54430883 14.8937723,3.63636405 L37.7036518,3.63636405 Z" id="Combined-Shape" fill="url(#radialGradient-4)"></path>
                <ellipse id="Oval-20-Copy" fill="url(#linearGradient-5)" cx="26.1789474" cy="3.63636364" rx="11.3157895" ry="3.63636364"></ellipse>
                <ellipse id="Oval-20-Copy" fill="url(#linearGradient-6)" cx="25.9526316" cy="4.09090909" rx="8.43834586" ry="2.63636364"></ellipse>
                <path d="M37.0733423,6.50499485 C37.2642152,6.38945325 37.4599882,6.29137344 37.6594677,6.2128027 C39.6921835,5.41215902 41.3400253,6.94048986 41.3400253,9.62642517 C41.3400253,12.3123605 39.6921835,15.1387912 37.6594677,15.9394349 C36.6138336,16.351288 35.670041,16.1468713 35,15.4856271 L35.2799031,14.2732338 C35.6003392,14.2891594 35.9447908,14.2489915 36.3034728,14.146122 C38.0152335,13.6551916 39.4028897,11.9221099 39.4028897,10.2751757 C39.4028897,8.75985588 38.2281598,7.84542888 36.7071053,8.09134173 L37.0733423,6.50499485 Z" id="Combined-Shape" fill="url(#linearGradient-7)"></path>
            </g>
        </g>
    </g>
</svg>