<?xml version="1.0" encoding="UTF-8" standalone="no"?>
<svg width="83px" height="102px" viewBox="0 0 83 102" version="1.1" xmlns="http://www.w3.org/2000/svg" xmlns:xlink="http://www.w3.org/1999/xlink">
    <!-- Generator: Sketch 39.1 (31720) - http://www.bohemiancoding.com/sketch -->
    <title>exe</title>
    <desc>Created with Sketch.</desc>
    <defs>
        <linearGradient x1="0%" y1="0%" x2="100%" y2="100%" id="linearGradient-1">
            <stop stop-color="#F6F6F6" offset="0%"></stop>
            <stop stop-color="#CECECE" offset="100%"></stop>
        </linearGradient>
        <linearGradient x1="21.3994966%" y1="80.1338005%" x2="50%" y2="50%" id="linearGradient-2">
            <stop stop-color="#EEEEEE" offset="0%"></stop>
            <stop stop-color="#E5E4E4" offset="100%"></stop>
        </linearGradient>
        <linearGradient x1="50%" y1="20.0711367%" x2="50%" y2="120.071137%" id="linearGradient-3">
            <stop stop-color="#8C8C8C" offset="0%"></stop>
            <stop stop-color="#969696" offset="100%"></stop>
        </linearGradient>
    </defs>
    <g id="Icons" stroke="none" stroke-width="1" fill="none" fill-rule="evenodd">
        <g id="exe">
            <path d="M53.9462592,0 L0,0 L0,102 L83,102 L83,28.0763718 L53.9462592,28.076373 L53.9462592,-1.11022302e-16 Z" id="Combined-Shape" fill="url(#linearGradient-1)"></path>
            <polygon id="Path-2-Copy" fill="url(#linearGradient-2)" points="56.4957983 0 56.4957983 25.6054138 82.9155003 25.6054127"></polygon>
            <text id="EXE" font-family="SourceSansPro-Light, Source Sans Pro" font-size="20" font-weight="300" fill="#6B6B6B">
                <tspan x="28" y="90">EXE</tspan>
            </text>
            <g id="Gear" transform="translate(22.000000, 31.000000)" fill="url(#linearGradient-3)">
                <path d="M16.5548363,6.12586099 C16.8378597,6.04025162 17.1243574,5.9627244 17.414065,5.89354569 L19.2883151,0.259226148 L25.9837738,0.845002882 L26.8455359,6.68109344 C27.3144105,6.88054023 27.7712711,7.10299793 28.2147214,7.34706065 L32.8057764,4.52258577 L37.5582653,9.27507468 L34.601846,14.0805993 C34.7745281,14.4369001 34.9338675,14.8009567 35.0792096,15.1721099 L40.2012055,15.8373089 L40.9037449,22.5215247 L35.7178707,24.3477233 C35.5945744,24.8675924 35.4449224,25.3771619 35.2704154,25.8749209 L38.9327737,29.9998832 L35.0777468,35.5054321 L29.6147642,33.3424453 C29.3077164,33.5578852 28.9923978,33.7622069 28.6693842,33.9548307 L28.7311045,39.8449919 L22.2097136,41.4709573 L19.3913102,36.0336239 L19.4774787,36.0121397 C19.1690944,35.9826029 18.8633966,35.943789 18.5606639,35.8959783 L14.6042752,40.5447774 L8.6157898,37.4934917 L10.0559254,31.5408451 L10.2044196,31.6165067 C10.0191645,31.430563 9.83864979,31.2398355 9.66307369,31.0445237 L3.67206479,32.057865 L1.04594749,25.8711203 L5.81613691,22.3542788 C5.79421902,22.1382249 5.77676647,21.9208404 5.76387367,21.7022204 L0.626868857,18.8077087 L2.47943697,12.3470358 L8.08852476,12.6017777 C8.32398095,12.2277699 8.57510847,11.8647496 8.84097772,11.5136526 L6.84455936,5.90716785 L12.481293,2.24663023 L16.5548363,6.12586099 Z M20.8003803,27.5512992 C24.4401131,27.5512992 27.3906995,24.5808602 27.3906995,20.9166381 C27.3906995,17.252416 24.4401131,14.281977 20.8003803,14.281977 C17.1606476,14.281977 14.2100612,17.252416 14.2100612,20.9166381 C14.2100612,24.5808602 17.1606476,27.5512992 20.8003803,27.5512992 Z" id="Combined-Shape"></path>
            </g>
        </g>
    </g>
</svg>