<?xml version="1.0" encoding="UTF-8" standalone="no"?>
<svg width="83px" height="102px" viewBox="0 0 83 102" version="1.1" xmlns="http://www.w3.org/2000/svg" xmlns:xlink="http://www.w3.org/1999/xlink">
    <!-- Generator: Sketch 39.1 (31720) - http://www.bohemiancoding.com/sketch -->
    <title>flv</title>
    <desc>Created with Sketch.</desc>
    <defs>
        <linearGradient x1="0%" y1="0%" x2="100%" y2="100%" id="linearGradient-1">
            <stop stop-color="#F6F6F6" offset="0%"></stop>
            <stop stop-color="#CECECE" offset="100%"></stop>
        </linearGradient>
        <linearGradient x1="21.3994966%" y1="80.1338005%" x2="50%" y2="50%" id="linearGradient-2">
            <stop stop-color="#EEEEEE" offset="0%"></stop>
            <stop stop-color="#E5E4E4" offset="100%"></stop>
        </linearGradient>
    </defs>
    <g id="Icons" stroke="none" stroke-width="1" fill="none" fill-rule="evenodd">
        <g id="flv">
            <path d="M53.9462592,0 L0,0 L0,102 L83,102 L83,28.0763718 L53.9462592,28.076373 L53.9462592,-1.11022302e-16 Z" id="Combined-Shape" fill="url(#linearGradient-1)"></path>
            <polygon id="Path-2-Copy" fill="url(#linearGradient-2)" points="56.4957983 0 56.4957983 25.6054138 82.9155003 25.6054127"></polygon>
            <text id="FLV" font-family="SourceSansPro-Light, Source Sans Pro" font-size="20" font-weight="300" fill="#6B6B6B">
                <tspan x="27" y="90">FLV</tspan>
            </text>
            <g id="FlvLogo" transform="translate(21.000000, 31.000000)">
                <circle id="Oval-9" fill="#CB0B0B" cx="20" cy="20" r="20"></circle>
                <path d="M24.4067792,13.7343195 L24.4067797,10.1036122 C24.4067797,10.1036122 18.7644684,10.2489116 16.4024924,18.3814394 C13.9254195,26.910258 11.5254237,27.3958431 11.5254237,27.3958431 L11.5254237,31.3690096 C11.5254237,31.3690096 16.1714657,29.5567979 18.3693152,21.4169545 C20.5671647,13.2771112 24.4067792,13.7343195 24.4067792,13.7343195 Z" id="Path-5" fill="#FFFFFF"></path>
                <rect id="Rectangle-12" fill="#FFFFFF" x="17.6271186" y="18.3050847" width="6.77966102" height="2.71186441"></rect>
            </g>
        </g>
    </g>
</svg>