<?xml version="1.0" encoding="UTF-8" standalone="no"?>
<svg width="83px" height="102px" viewBox="0 0 83 102" version="1.1" xmlns="http://www.w3.org/2000/svg" xmlns:xlink="http://www.w3.org/1999/xlink">
    <!-- Generator: Sketch 39.1 (31720) - http://www.bohemiancoding.com/sketch -->
    <title>key</title>
    <desc>Created with Sketch.</desc>
    <defs>
        <linearGradient x1="0%" y1="0%" x2="100%" y2="100%" id="linearGradient-1">
            <stop stop-color="#F6F6F6" offset="0%"></stop>
            <stop stop-color="#CECECE" offset="100%"></stop>
        </linearGradient>
        <linearGradient x1="21.3994966%" y1="80.1338005%" x2="50%" y2="50%" id="linearGradient-2">
            <stop stop-color="#EEEEEE" offset="0%"></stop>
            <stop stop-color="#E5E4E4" offset="100%"></stop>
        </linearGradient>
        <linearGradient x1="50%" y1="0%" x2="50%" y2="100%" id="linearGradient-3">
            <stop stop-color="#00CEFF" offset="0%"></stop>
            <stop stop-color="#3450F3" offset="100%"></stop>
        </linearGradient>
    </defs>
    <g id="Icons" stroke="none" stroke-width="1" fill="none" fill-rule="evenodd">
        <g id="key">
            <path d="M53.9462592,0 L0,0 L0,102 L83,102 L83,28.0763718 L53.9462592,28.076373 L53.9462592,-1.11022302e-16 Z" id="Combined-Shape" fill="url(#linearGradient-1)"></path>
            <polygon id="Path-2-Copy" fill="url(#linearGradient-2)" points="56.4957983 0 56.4957983 25.6054138 82.9155003 25.6054127"></polygon>
            <text id="KEY" font-family="SourceSansPro-Light, Source Sans Pro" font-size="20" font-weight="300" fill="#6B6B6B">
                <tspan x="25" y="90">KEY</tspan>
            </text>
            <g id="KeynoteLogo" transform="translate(21.000000, 32.000000)">
                <rect id="Rectangle-36" fill="url(#linearGradient-3)" x="0" y="0" width="38" height="38" rx="3"></rect>
                <rect id="Rectangle-31" fill="#FFFFFF" x="14" y="29" width="11.3387097" height="1.83870968" rx="0.919354839"></rect>
                <rect id="Rectangle-31-Copy" fill="#FFFFFF" x="8.40356574" y="19" width="22.7251266" height="1.22580645" rx="0.612903226"></rect>
                <path d="M19.8362998,5.51902663 C19.8004204,5.01011744 19.3683634,4.59677419 18.8406486,4.59677419 L12.5625772,4.59677419 C12.0093727,4.59677419 11.5645161,5.0403606 11.5645161,5.58755216 L11.5645161,9.60599622 C11.5645161,10.1206604 11.9707131,10.5545778 12.4862808,10.5938766 C12.4846831,10.5712149 12.483871,10.5483637 12.483871,10.5253511 L12.483871,6.506907 C12.483871,5.95971544 12.9287275,5.51612903 13.481932,5.51612903 L19.7600034,5.51612903 C19.7856735,5.51612903 19.8111171,5.51710709 19.8362998,5.51902663 Z" id="Combined-Shape" fill="#FFFFFF"></path>
                <polygon id="Rectangle-33" fill="#FFFFFF" points="29.3144986 7.96774194 30.4503303 18.3870968 9.08192773 18.3870968 10.2177594 7.96774194"></polygon>
                <rect id="Rectangle-35" fill="#FFFFFF" x="15.8548387" y="3.98387097" width="5.20967742" height="2.14516129" rx="1.07258065"></rect>
                <rect id="Rectangle-32" fill="#FFFFFF" x="19" y="20.8387097" width="1.53225806" height="9.16129032" rx="0.766129032"></rect>
            </g>
        </g>
    </g>
</svg>