<?xml version="1.0" encoding="UTF-8" standalone="no"?>
<svg width="83px" height="102px" viewBox="0 0 83 102" version="1.1" xmlns="http://www.w3.org/2000/svg" xmlns:xlink="http://www.w3.org/1999/xlink">
    <!-- Generator: Sketch 39.1 (31720) - http://www.bohemiancoding.com/sketch -->
    <title>pdf</title>
    <desc>Created with Sketch.</desc>
    <defs>
        <linearGradient x1="0%" y1="0%" x2="100%" y2="100%" id="linearGradient-1">
            <stop stop-color="#F6F6F6" offset="0%"></stop>
            <stop stop-color="#CECECE" offset="100%"></stop>
        </linearGradient>
        <linearGradient x1="21.3994966%" y1="80.1338005%" x2="50%" y2="50%" id="linearGradient-2">
            <stop stop-color="#EEEEEE" offset="0%"></stop>
            <stop stop-color="#E5E4E4" offset="100%"></stop>
        </linearGradient>
    </defs>
    <g id="Icons" stroke="none" stroke-width="1" fill="none" fill-rule="evenodd">
        <g id="pdf">
            <path d="M53.9462592,0 L0,0 L0,102 L83,102 L83,28.0763718 L53.9462592,28.076373 L53.9462592,-1.11022302e-16 Z" id="Combined-Shape" fill="url(#linearGradient-1)"></path>
            <polygon id="Path-2-Copy" fill="url(#linearGradient-2)" points="56.4957983 0 56.4957983 25.6054138 82.9155003 25.6054127"></polygon>
            <text id="PDF" font-family="SourceSansPro-Light, Source Sans Pro" font-size="20" font-weight="300" fill="#6B6B6B">
                <tspan x="24" y="90">PDF</tspan>
            </text>
            <g id="PdfLogo" transform="translate(21.000000, 32.000000)">
                <rect id="Rectangle-26" fill="#D71E1E" x="1" y="0" width="37" height="37"></rect>
                <path d="M6.67525425,24.4108388 C8.89018001,23.9508464 18.570051,18.5542824 20.8016293,12.1218189 C23.0332076,5.68935543 18.8571147,8.27974417 18.8571147,11.9574401 C18.8571147,15.635136 23.1398175,25.638571 25.2954545,28.3266093 C27.4510914,31.0146476 29.416223,30.0261357 27.0968496,26.8678564 C24.7774763,23.709577 9.07440871,21.3480041 6.17070944,22.150233 C3.26701017,22.9524619 4.46032849,24.8708311 6.67525425,24.4108388 Z" id="Path-8" stroke="#FFFFFF" transform="translate(16.296868, 19.039664) rotate(-27.000000) translate(-16.296868, -19.039664) "></path>
            </g>
        </g>
    </g>
</svg>