
<svg width="84px" height="68px" viewBox="-1 0 84 68" version="1.1" xmlns="http://www.w3.org/2000/svg" xmlns:xlink="http://www.w3.org/1999/xlink">
    <!-- Generator: Sketch 3.8.3 (29802) - http://www.bohemiancoding.com/sketch -->
    <desc>Created with Sketch.</desc>
    <defs></defs>
    <g id="HardDisk" stroke="none" stroke-width="1" fill="none" fill-rule="evenodd">
        <path d="M80.3890237,47.1641338 L69.309161,4.33325688 C68.6897478,1.93882179 66.1247049,0 63.579259,0 L18.807717,0 C16.2615912,0 13.6969066,1.94006519 13.077815,4.33325688 L2.00036542,47.1548057 C3.37145235,45.9196746 5.18863718,45.1678633 7.18660357,45.1678633 L75.2003725,45.1678633 C77.1963751,45.1678633 79.015983,45.9241247 80.3890237,47.1641338 Z M41.676065,36.7706078 C53.9235675,36.7706078 63.85213,30.1062303 63.85213,21.8853039 C63.85213,13.6643776 53.9235675,7 41.676065,7 C29.4285625,7 19.5,13.6643776 19.5,21.8853039 C19.5,30.1062303 29.4285625,36.7706078 41.676065,36.7706078 Z" id="Combined-Shape" fill="#C4C4C4"></path>
        <path d="M0,57.25 C0,51.3129389 4.8082471,46.5 10.7411244,46.5 L71.2588756,46.5 C77.1910348,46.5 82,51.3116335 82,57.25 C82,63.1870611 77.1917529,68 71.2588756,68 L10.7411244,68 C4.80896518,68 0,63.1883665 0,57.25 Z M69.75,62 C72.3733526,62 74.5,59.8733526 74.5,57.25 C74.5,54.6266474 72.3733526,52.5 69.75,52.5 C67.1266474,52.5 65,54.6266474 65,57.25 C65,59.8733526 67.1266474,62 69.75,62 Z" id="Combined-Shape" fill="#969696"></path>
        <ellipse id="Oval-2" fill="#C4C4C4" cx="41.3461538" cy="21.5" rx="5.84615385" ry="4"></ellipse>
    </g>
</svg>