<?xml version="1.0" encoding="UTF-8" standalone="no"?>
<!-- Created with Inkscape (http://www.inkscape.org/) -->

<svg
   xmlns:dc="http://purl.org/dc/elements/1.1/"
   xmlns:cc="http://creativecommons.org/ns#"
   xmlns:rdf="http://www.w3.org/1999/02/22-rdf-syntax-ns#"
   xmlns:svg="http://www.w3.org/2000/svg"
   xmlns="http://www.w3.org/2000/svg"
   version="1.1"
   width="470"
   height="470"
   id="svg2">
  <defs
     id="defs4">
    <clipPath
       id="clipPath3050">
      <path
         d="m 72,152 451,0 0,538 -451,0 0,-538 z"
         id="path3052" />
    </clipPath>
    <clipPath
       id="clipPath3040">
      <path
         d="m 72,152 451,0 0,538 -451,0 0,-538 z"
         id="path3042" />
    </clipPath>
    <clipPath
       id="clipPath3034">
      <path
         d="m 341,447 105.8734,-69.3023 0,0 c 13.4834,20.5986 20.6651,44.6831 20.6651,69.3023 L 341,447 z"
         id="path3036" />
    </clipPath>
    <clipPath
       id="clipPath3020">
      <path
         d="m 72,152 451,0 0,538 -451,0 0,-538 z"
         id="path3022" />
    </clipPath>
  </defs>
  <metadata
     id="metadata7">
    <rdf:RDF>
      <cc:Work
         rdf:about="">
        <dc:format>image/svg+xml</dc:format>
        <dc:type
           rdf:resource="http://purl.org/dc/dcmitype/StillImage" />
        <dc:title></dc:title>
      </cc:Work>
    </rdf:RDF>
  </metadata>
  <g
     transform="translate(-187.7738,-163.99484)"
     id="layer1">
    <g
       transform="matrix(1.25,0,0,-1.25,-2.205696,944.75928)"
       id="g3012">
      <g
         id="g3014" />
      <g
         id="g3030">
        <g
           clip-path="url(#clipPath3034)"
           id="g3032">
          <g
             clip-path="url(#clipPath3040)"
             id="g3038">
            <path
               d="m 367.095,420.905 c 14.4118,14.4119 14.4118,37.7781 0,52.19 -14.4119,14.4118 -37.7781,14.4118 -52.19,0 -14.4118,-14.4119 -14.4118,-37.7781 0,-52.19 14.4119,-14.4118 37.7781,-14.4118 52.19,0 m -0.3536,0.3536 c 14.2166,14.2166 14.2166,37.2662 0,51.4828 -14.2166,14.2166 -37.2662,14.2166 -51.4828,0 -14.2166,-14.2166 -14.2166,-37.2662 0,-51.4828 14.2166,-14.2166 37.2662,-14.2166 51.4828,0"
               id="path3044"
               style="fill:#ffffff;fill-opacity:1;fill-rule:evenodd;stroke:none" />
          </g>
        </g>
      </g>
      <g
         id="g3046">
        <g
           clip-path="url(#clipPath3050)"
           id="g3048">
          <path
             d="m 372.9741,464.4039 23.4658,12.56 0,0 c -16.5486,30.6186 -54.7852,42.0247 -85.4038,25.476 -30.6186,-16.5486 -42.0247,-54.7852 -25.476,-85.4038 16.5486,-30.6186 54.7852,-42.0247 85.4038,-25.476 9.1337,4.9365 16.9063,12.0533 22.6268,20.7176 l -22.2706,14.5746 0,0 c -11.1273,-16.7454 -33.7225,-21.2997 -50.4678,-10.1724 -16.7454,11.1273 -21.2997,33.7225 -10.1724,50.4678 11.1273,16.7454 33.7225,21.2997 50.4678,10.1724 4.9345,-3.2789 8.9941,-7.7126 11.8264,-12.9162 z"
             id="path3054"
             style="fill:#40ffce;fill-opacity:1;fill-rule:nonzero;stroke:none" />
          <path
             d="m 396.7944,477.3591 23.4296,12.627 0,0 c -23.7405,43.7542 -78.4558,59.9785 -122.2101,36.2379 -43.7542,-23.7405 -59.9785,-78.4558 -36.2379,-122.2101 23.7405,-43.7542 78.4558,-59.9785 122.2101,-36.2379 13.0401,7.0754 24.1321,17.2603 32.2917,29.6508 l -22.2698,14.5754 0,0 c -19.3288,-29.2755 -58.7303,-37.3389 -88.0058,-18.0102 -29.2755,19.3288 -37.3389,58.7303 -18.0102,88.0058 19.3288,29.2755 58.7303,37.3389 88.0058,18.0102 8.6825,-5.7325 15.8239,-13.51 20.7966,-22.6489 z"
             id="path3056"
             style="fill:#60ffd6;fill-opacity:1;fill-rule:nonzero;stroke:none" />
          <path
             d="m 254.7839,419.0462 -25.341,-8.1376 0,0 c 19.9328,-61.6112 86.0372,-95.3984 147.6485,-75.4657 25.3867,8.2133 47.2128,24.8397 61.8735,47.1333 l -22.2695,14.5756 0,0 c -27.5304,-41.8054 -83.7381,-53.3776 -125.5436,-25.8472 -17.1926,11.322 -30.0188,28.1594 -36.3679,47.7416 z"
             id="path3058"
             style="fill:#e5ff70;fill-opacity:1;fill-rule:nonzero;stroke:none" />
          <path
             d="m 233.3842,399.2098 -24.3481,-10.7495 0,0 c 32.3306,-72.8816 117.6219,-105.7548 190.5036,-73.4242 25.3322,11.2375 46.8946,29.5287 62.1124,52.6894 l -22.2694,14.5759 0,0 c -35.732,-54.3352 -108.746,-69.4161 -163.0813,-33.6841 -18.8591,12.4022 -33.7562,29.9635 -42.9172,50.5925 z"
             id="path3060"
             style="fill:#eeff78;fill-opacity:1;fill-rule:nonzero;stroke:none" />
          <path
             d="m 268.1655,321.7757 -13.422,-22.9832 0,0 C 333.49,252.9622 434.3281,276.7151 484.3392,352.875 l -22.2692,14.576 0,0 C 419.8203,303.1489 334.674,283.0922 268.1655,321.7757 z"
             id="path3062"
             style="fill:#ffe57c;fill-opacity:1;fill-rule:nonzero;stroke:none" />
          <path
             d="m 456.5869,317.2229 2.6683,-3.0057 0,0 c 11.6225,10.3508 21.8356,22.1828 30.3777,35.1926 l -3.3633,2.2007 0,0 c -8.347,-12.7119 -18.3265,-24.2731 -29.6827,-34.3876 z"
             id="path3064"
             style="fill:#ff907e;fill-opacity:1;fill-rule:nonzero;stroke:none" />
          <path
             d="m 487.0445,341.5839 3.2552,-2.3575 0,0 c 1.5917,2.205 3.1344,4.445 4.6269,6.7183 l -3.3633,2.2007 0,0 c -1.4577,-2.2203 -2.9644,-4.408 -4.5188,-6.5615 z"
             id="path3066"
             style="fill:#808080;fill-opacity:1;fill-rule:nonzero;stroke:none" />
          <path
             d="m 482.1013,335.0537 3.1447,-2.503 0,0 c 1.6315,2.0562 3.2188,4.1471 4.7609,6.2713 l -3.256,2.3563 0,0 c -1.5061,-2.0744 -3.0564,-4.1164 -4.6496,-6.1246 z"
             id="path3068"
             style="fill:#808080;fill-opacity:1;fill-rule:nonzero;stroke:none" />
          <path
             d="m 477.8393,329.8823 3.0494,-2.6183 0,0 c 1.3769,1.6086 2.7259,3.2408 4.0464,4.896 l -3.1456,2.5019 0,0 c -1.2892,-1.6158 -2.6061,-3.2092 -3.9502,-4.7796 z"
             id="path3070"
             style="fill:#808080;fill-opacity:1;fill-rule:nonzero;stroke:none" />
          <path
             d="m 473.4478,324.938 2.9513,-2.7284 0,0 c 1.4145,1.5348 2.8029,3.0935 4.1644,4.6755 l -3.0503,2.6172 0,0 c -1.3292,-1.5443 -2.6846,-3.066 -4.0654,-4.5643 z"
             id="path3072"
             style="fill:#808080;fill-opacity:1;fill-rule:nonzero;stroke:none" />
          <path
             d="m 469.0699,320.3522 2.8534,-2.8305 0,0 c 1.4023,1.4179 2.7814,2.8585 4.1369,4.3212 l -2.9522,2.7274 0,0 c -1.3232,-1.4278 -2.6694,-2.834 -4.0381,-4.2181 z"
             id="path3074"
             style="fill:#808080;fill-opacity:1;fill-rule:nonzero;stroke:none" />
          <path
             d="m 460.7881,312.4922 2.6684,-3.0057 0,0 c 2.7822,2.4775 5.4885,5.0389 8.1152,7.6806 l -2.8544,2.8296 0,0 c -2.5666,-2.581 -5.2109,-5.0837 -7.9292,-7.5045 z"
             id="path3076"
             style="fill:#808080;fill-opacity:0.2;fill-rule:nonzero;stroke:none" />
          <path
             d="m 437.6026,302.5342 2.2287,-3.3447 0,0 c 6.6747,4.4629 13.0395,9.3729 19.0506,14.6962 l -2.6694,3.0047 0,0 c -5.8722,-5.1999 -12.0898,-9.9963 -18.6099,-14.3562 z"
             id="path3078"
             style="fill:#ffab7e;fill-opacity:1;fill-rule:nonzero;stroke:none" />
          <path
             d="m 448.8028,302.7082 2.4006,-3.2235 0,0 c 4.0923,3.0572 8.0557,6.2834 11.8797,9.6702 l -2.6693,3.0048 0,0 c -3.7377,-3.31 -7.6114,-6.4633 -11.611,-9.4515 z"
             id="path3080"
             style="fill:#808080;fill-opacity:1;fill-rule:nonzero;stroke:none" />
          <path
             d="m 442.905,298.4843 2.2688,-3.3177 0,0 c 1.9014,1.3046 3.7781,2.6447 5.6291,4.0198 l -2.4016,3.2227 0,0 c -1.8074,-1.3425 -3.6399,-2.651 -5.4963,-3.9248 z"
             id="path3082"
             style="fill:#808080;fill-opacity:1;fill-rule:nonzero;stroke:none" />
          <path
             d="m 420.5206,292.472 1.8333,-3.5768 0,0 c 5.8688,3.0199 11.565,6.3641 17.0619,10.0173 l -2.2299,3.3439 0,0 c -5.3693,-3.568 -10.933,-6.8346 -16.6653,-9.7844 z"
             id="path3084"
             style="fill:#ffbc7e;fill-opacity:1;fill-rule:nonzero;stroke:none" />
          <path
             d="m 436.4997,294.2867 2.1257,-3.4111 0,0 c 1.446,0.9042 2.8794,1.8284 4.2998,2.7725 l -2.2299,3.3439 0,0 c -1.386,-0.9211 -2.7847,-1.823 -4.1956,-2.7053 z"
             id="path3086"
             style="fill:#ffb77f;fill-opacity:1;fill-rule:nonzero;stroke:none" />
          <path
             d="m 432.4361,291.8195 2.035,-3.466 0,0 c 1.2524,0.7379 2.496,1.4906 3.7306,2.2579 l -2.1269,3.4104 0,0 c -1.2042,-0.7484 -2.4172,-1.4826 -3.6387,-2.2023 z"
             id="path3088"
             style="fill:#ffbb7f;fill-opacity:1;fill-rule:nonzero;stroke:none" />
          <path
             d="m 423.4075,286.8421 1.8333,-3.5768 0,0 c 2.9767,1.5315 5.911,3.1439 8.7997,4.8353 l -2.0361,3.4653 0,0 c -2.8222,-1.6524 -5.6889,-3.2275 -8.5969,-4.7238 z"
             id="path3090"
             style="fill:#808080;fill-opacity:0.2;fill-rule:nonzero;stroke:none" />
          <path
             d="m 404.6086,285.2707 1.465,-3.7427 0,0 c 5.3918,2.1203 10.6768,4.503 15.836,7.1394 l -1.8346,3.5761 0,0 c -5.0389,-2.5747 -10.2005,-4.9017 -15.4664,-6.9728 z"
             id="path3092"
             style="fill:#ffcb7e;fill-opacity:1;fill-rule:nonzero;stroke:none" />
          <path
             d="m 414.7147,282.6598 1.6392,-3.6698 0,0 c 2.848,1.2774 5.6631,2.627 8.4426,4.0475 l -1.8346,3.5761 0,0 c -2.7151,-1.3875 -5.4651,-2.7059 -8.2472,-3.9538 z"
             id="path3094"
             style="fill:#808080;fill-opacity:1;fill-rule:nonzero;stroke:none" />
          <path
             d="m 409.182,280.2884 1.5157,-3.7225 0,0 c 1.7447,0.7135 3.4783,1.4537 5.2003,2.2204 l -1.6405,3.6692 0,0 c -1.6806,-0.7482 -3.3727,-1.4707 -5.0755,-2.1671 z"
             id="path3096"
             style="fill:#808080;fill-opacity:1;fill-rule:nonzero;stroke:none" />
          <path
             d="m 392.4222,280.9934 1.183,-3.8412 0,0 c 4.0499,1.2544 8.0536,2.6531 12.0035,4.1937 l -1.4663,3.7422 0,0 c -3.8568,-1.5041 -7.766,-2.8698 -11.7202,-4.0947 z"
             id="path3098"
             style="fill:#ffd77e;fill-opacity:1;fill-rule:nonzero;stroke:none" />
          <path
             d="m 394.2855,274.9471 1.1831,-3.8412 0,0 c 4.1997,1.3005 8.3515,2.751 12.4473,4.3487 l -1.4663,3.7422 0,0 c -4.0027,-1.5612 -8.06,-2.9787 -12.1641,-4.2497 z"
             id="path3100"
             style="fill:#ffd77f;fill-opacity:1;fill-rule:nonzero;stroke:none" />
          <path
             d="m 381.3475,277.96 0.9268,-3.9109 0,0 c 3.6482,0.8706 7.2679,1.8565 10.8538,2.9561 l -1.1844,3.8407 0,0 c -3.5008,-1.0733 -7.0346,-2.0358 -10.5962,-2.8859 z"
             id="path3102"
             style="fill:#ffe07e;fill-opacity:1;fill-rule:nonzero;stroke:none" />
          <path
             d="m 370.3017,275.6996 0.6713,-3.9628 0,0 c 3.627,0.6203 7.2339,1.353 10.8154,2.1971 l -0.9281,3.9106 0,0 c -3.4965,-0.8239 -7.0177,-1.5393 -10.5586,-2.1449 z"
             id="path3104"
             style="fill:#ffe97e;fill-opacity:1;fill-rule:nonzero;stroke:none" />
          <path
             d="m 371.8384,269.5443 0.682,-3.961 0,0 c 3.597,0.625 7.1746,1.3568 10.7281,2.1944 l -0.9282,3.9106 0,0 c -3.472,-0.8183 -6.9674,-1.5333 -10.4819,-2.144 z"
             id="path3106"
             style="fill:#808080;fill-opacity:1;fill-rule:nonzero;stroke:none" />
          <path
             d="m 362.382,274.5319 0.488,-3.9895 0,0 c 2.5446,0.3154 5.0821,0.6858 7.6107,1.1109 l -0.6726,3.9626 0,0 c -2.4673,-0.4148 -4.9433,-0.7762 -7.4261,-1.084 z"
             id="path3108"
             style="fill:#808080;fill-opacity:1;fill-rule:nonzero;stroke:none" />
          <path
             d="m 354.7204,273.754 0.3109,-4.0072 0,0 c 2.4525,0.1941 4.9008,0.4392 7.3431,0.7349 l -0.4894,3.9893 0,0 c -2.383,-0.2884 -4.7717,-0.5275 -7.1646,-0.717 z"
             id="path3110"
             style="fill:#fff77e;fill-opacity:1;fill-rule:nonzero;stroke:none" />
          <path
             d="m 348.2794,273.3641 0.1619,-4.016 0,0 c 2.0326,0.0851 4.0637,0.2051 6.0922,0.36 l -0.3123,4.0071 0,0 c -1.9784,-0.151 -3.9593,-0.268 -5.9418,-0.3511 z"
             id="path3112"
             style="fill:#808080;fill-opacity:1;fill-rule:nonzero;stroke:none" />
          <path
             d="m 342.1972,273.2157 0.0211,-4.0192 0,0 c 1.9086,0.0131 3.8169,0.0569 5.7241,0.1314 l -0.1633,4.0159 0,0 c -1.8598,-0.0726 -3.7207,-0.1153 -5.5819,-0.1281 z"
             id="path3114"
             style="fill:#808080;fill-opacity:1;fill-rule:nonzero;stroke:none" />
          <path
             d="m 336.211,273.2775 -0.1172,-4.0175 0,0 c 1.8746,-0.0517 3.7499,-0.0738 5.6253,-0.0662 l -0.0227,4.0191 0,0 c -1.8287,-0.007 -3.6574,0.0142 -5.4854,0.0646 z"
             id="path3116"
             style="fill:#f8ff7e;fill-opacity:1;fill-rule:nonzero;stroke:none" />
          <path
             d="m 336.2518,266.9472 -0.1122,-4.0177 0,0 c 1.8709,-0.0494 3.7424,-0.0702 5.6139,-0.0626 l -0.0226,4.0192 0,0 c -1.8266,-0.007 -3.6531,0.013 -5.4791,0.0611 z"
             id="path3118"
             style="fill:#f8ff7f;fill-opacity:1;fill-rule:nonzero;stroke:none" />
          <path
             d="m 336.0763,260.6227 -0.1122,-4.0177 0,0 c 1.9409,-0.0513 3.8824,-0.0729 5.8239,-0.0649 l -0.0226,4.0192 0,0 c -1.8966,-0.008 -3.7931,0.0133 -5.6891,0.0634 z"
             id="path3120"
             style="fill:#f8ff7f;fill-opacity:1;fill-rule:nonzero;stroke:none" />
          <path
             d="m 337.2019,254.2682 -0.085,-4.0183 0,0 c 1.5683,-0.031 3.1369,-0.0432 4.7055,-0.0366 l -0.0225,4.0191 0,0 c -1.5328,-0.006 -3.0655,0.006 -4.598,0.0358 z"
             id="path3122"
             style="fill:#808080;fill-opacity:1;fill-rule:nonzero;stroke:none" />
          <path
             d="m 330.6741,273.5186 -0.2453,-4.0118 0,0 c 1.7207,-0.1025 3.4429,-0.1799 5.1659,-0.2323 l 0.1158,4.0176 0,0 c -1.6798,0.0511 -3.3588,0.1266 -5.0364,0.2265 z"
             id="path3124"
             style="fill:#808080;fill-opacity:1;fill-rule:nonzero;stroke:none" />
          <path
             d="m 325.2131,273.9301 -0.3716,-4.0021 0,0 c 1.6944,-0.1546 3.3908,-0.2849 5.0889,-0.3908 l 0.2439,4.0118 0,0 c -1.6555,0.1034 -3.3094,0.2304 -4.9612,0.3811 z"
             id="path3126"
             style="fill:#efff7e;fill-opacity:1;fill-rule:nonzero;stroke:none" />
          <path
             d="m 324.6293,267.6301 -0.3715,-4.002 0,0 c 1.7604,-0.1607 3.5232,-0.2961 5.2876,-0.4061 l 0.2439,4.0118 0,0 c -1.7218,0.1074 -3.442,0.2395 -5.16,0.3963 z"
             id="path3128"
             style="fill:#808080;fill-opacity:1;fill-rule:nonzero;stroke:none" />
          <path
             d="m 320.1245,274.4699 -0.4892,-3.9894 0,0 c 1.5674,-0.1897 3.1372,-0.3585 4.7091,-0.5064 l 0.3701,4.0022 0,0 c -1.5321,0.1442 -3.0622,0.3087 -4.59,0.4936 z"
             id="path3130"
             style="fill:#ebff7e;fill-opacity:1;fill-rule:nonzero;stroke:none" />
          <path
             d="m 253.5805,296.7993 -2.0274,-3.4704 0,0 c 20.7585,-12.0829 43.7498,-19.8347 67.5866,-22.7877 l 0.4878,3.9895 0,0 c -23.2936,2.8866 -45.761,10.4618 -66.047,22.2686 z"
             id="path3132"
             style="fill:#808080;fill-opacity:0.2;fill-rule:nonzero;stroke:none" />
          <path
             d="m 214.7486,375.9609 -23.2185,-13.0109 0,0 c 14.8951,-26.4886 36.5619,-48.5432 62.7823,-63.9058 l 13.4206,22.9841 0,0 c -22.124,12.9706 -40.4082,31.582 -52.9844,53.9326 z"
             id="path3134"
             style="fill:#8cff7c;fill-opacity:1;fill-rule:nonzero;stroke:none" />
          <path
             d="m 189.7931,361.3326 -3.5002,-1.9756 0,0 c 15.439,-27.2528 37.8031,-49.9437 64.829,-65.7764 l 2.0262,3.4712 0,0 c -26.4108,15.4736 -48.2661,37.6483 -63.355,64.2808 z"
             id="path3136"
             style="fill:#8dff7e;fill-opacity:1;fill-rule:nonzero;stroke:none" />
          <path
             d="m 194.9063,341.652 -3.2637,-2.3457 0,0 c 14.9947,-20.7957 34.1668,-38.2309 56.2888,-51.1893 l 2.0262,3.4712 0,0 c -21.6351,12.6741 -40.3856,29.7259 -55.0513,50.0638 z"
             id="path3138"
             style="fill:#96ff7f;fill-opacity:1;fill-rule:nonzero;stroke:none" />
          <path
             d="m 229.0568,297.9046 -2.4181,-3.2105 0,0 c 5.7999,-4.355 11.8438,-8.3751 18.1023,-12.0407 l 2.0262,3.4712 0,0 c -6.1229,3.5864 -12.0359,7.5195 -17.7104,11.78 z"
             id="path3140"
             style="fill:#aaff7f;fill-opacity:1;fill-rule:nonzero;stroke:none" />
          <path
             d="m 233.4919,286.9938 -2.2465,-3.3328 0,0 c 3.3675,-2.2628 6.8042,-4.4209 10.3051,-6.4712 l 2.0262,3.4712 0,0 c -3.426,2.0066 -6.7893,4.1185 -10.0848,6.3328 z"
             id="path3142"
             style="fill:#aeff7f;fill-opacity:1;fill-rule:nonzero;stroke:none" />
          <path
             d="m 225.2512,292.8501 -2.418,-3.2105 0,0 c 2.6182,-1.9661 5.2851,-3.8666 7.9981,-5.6996 l 2.2454,3.3336 0,0 c -2.6545,1.7935 -5.2638,3.6529 -7.8255,5.5765 z"
             id="path3144"
             style="fill:#808080;fill-opacity:0.2;fill-rule:nonzero;stroke:none" />
          <path
             d="m 215.3845,309.2267 -2.7124,-2.966 0,0 c 4.3462,-3.9629 8.8736,-7.7224 13.5677,-11.2663 l 2.417,3.2113 0,0 c -4.5918,3.4669 -9.0206,7.1445 -13.2723,11.021 z"
             id="path3146"
             style="fill:#9cff7f;fill-opacity:1;fill-rule:nonzero;stroke:none" />
          <path
             d="m 212.8295,303.0129 -2.6767,-2.9983 0,0 c 3.9565,-3.5221 8.0537,-6.8831 12.2814,-10.0746 l 2.417,3.2112 0,0 c -4.1382,3.1242 -8.1487,6.4141 -12.0217,9.8617 z"
             id="path3148"
             style="fill:#9dff7f;fill-opacity:1;fill-rule:nonzero;stroke:none" />
          <path
             d="m 209.4805,314.851 -2.8395,-2.8445 0,0 c 1.8502,-1.8416 3.7382,-3.6449 5.6625,-5.4088 l 2.7115,2.9668 0,0 c -1.8808,1.7241 -3.726,3.4866 -5.5345,5.2865 z"
             id="path3150"
             style="fill:#93ff7f;fill-opacity:1;fill-rule:nonzero;stroke:none" />
          <path
             d="m 205.0272,310.3568 -2.8392,-2.8449 0,0 c 1.9104,-1.9011 3.8596,-3.7628 5.8465,-5.5839 l 2.7115,2.9669 0,0 c -1.9434,1.7813 -3.8501,3.6023 -5.7188,5.4619 z"
             id="path3152"
             style="fill:#808080;fill-opacity:1;fill-rule:nonzero;stroke:none" />
          <path
             d="m 204.5555,319.9424 -2.9455,-2.7346 0,0 c 1.5304,-1.6437 3.0899,-3.2601 4.6775,-4.8486 l 2.8386,2.8455 0,0 c -1.5513,1.5522 -3.0751,3.1317 -4.5706,4.7377 z"
             id="path3154"
             style="fill:#8dff7f;fill-opacity:1;fill-rule:nonzero;stroke:none" />
          <path
             d="m 199.9197,315.6367 -2.9456,-2.7346 0,0 c 1.585,-1.7023 3.2,-3.3764 4.8443,-5.0214 l 2.8386,2.8455 0,0 c -1.608,1.6087 -3.1873,3.2458 -4.7373,4.9105 z"
             id="path3156"
             style="fill:#808080;fill-opacity:1;fill-rule:nonzero;stroke:none" />
          <path
             d="m 200.3005,324.671 -3.0371,-2.6326 0,0 c 1.3121,-1.5092 2.6478,-2.9976 4.0068,-4.4647 l 2.9446,2.7356 0,0 c -1.3275,1.4333 -2.6324,2.8873 -3.9143,4.3617 z"
             id="path3158"
             style="fill:#89ff7f;fill-opacity:1;fill-rule:nonzero;stroke:none" />
          <path
             d="m 189.7694,337.9586 -3.2637,-2.3457 0,0 c 3.2808,-4.5506 6.7611,-8.9539 10.4306,-13.1972 l 3.0362,2.6335 0,0 c -3.5893,4.1509 -6.9937,8.4582 -10.2031,12.9094 z"
             id="path3160"
             style="fill:#808080;fill-opacity:0.2;fill-rule:nonzero;stroke:none" />
          <path
             d="m 191.021,347.261 -3.3502,-2.2204 0,0 c 1.1955,-1.7977 2.4224,-3.5743 3.6803,-5.3289 l 3.263,2.3469 0,0 c -1.2281,1.713 -2.4259,3.4474 -3.5931,5.2024 z"
             id="path3162"
             style="fill:#808080;fill-opacity:1;fill-rule:nonzero;stroke:none" />
          <path
             d="m 187.9838,351.9864 -3.4179,-2.1149 0,0 c 0.922,-1.4849 1.8651,-2.9567 2.829,-4.4147 l 3.3495,2.2215 0,0 c -0.9406,1.4229 -1.8609,2.8591 -2.7606,4.3081 z"
             id="path3164"
             style="fill:#808080;fill-opacity:1;fill-rule:nonzero;stroke:none" />
          <path
             d="m 184.2838,358.2217 -3.5002,-1.9756 0,0 c 1.1359,-2.0052 2.3092,-3.9889 3.5195,-5.95 l 3.4171,2.116 0,0 c -1.1816,1.9149 -2.3273,3.8518 -3.4364,5.8096 z"
             id="path3166"
             style="fill:#808080;fill-opacity:0.2;fill-rule:nonzero;stroke:none" />
          <path
             d="m 210.8824,383.3181 -23.9265,-11.6579 0,0 c 1.368,-2.797 2.8119,-5.5562 4.3301,-8.2746 l 23.2177,13.0122 0,0 c -1.2691,2.2738 -2.4766,4.5814 -3.6213,6.9203 z"
             id="path3168"
             style="fill:#7cff94;fill-opacity:1;fill-rule:nonzero;stroke:none" />
          <path
             d="m 184.8818,370.6487 -3.6135,-1.76 0,0 c 1.421,-2.9057 2.921,-5.7722 4.4984,-8.5962 l 3.5058,1.9655 0,0 c -1.5395,2.7565 -3.0037,5.5544 -4.3907,8.3907 z"
             id="path3170"
             style="fill:#7eff96;fill-opacity:1;fill-rule:nonzero;stroke:none" />
          <path
             d="m 208.5791,388.2576 -24.348,-10.7497 0,0 c 0.8041,-1.814 1.6396,-3.6139 2.5061,-5.3989 l 23.9258,11.6594 0,0 c -0.7202,1.4844 -1.4149,2.981 -2.0839,4.4892 z"
             id="path3172"
             style="fill:#808080;fill-opacity:0.2;fill-rule:nonzero;stroke:none" />
          <path
             d="m 231.9615,402.5514 -24.668,-9.9935 0,0 c 0.497,-1.2206 1.0107,-2.4344 1.541,-3.641 l 24.3473,10.7513 0,0 c -0.4195,0.9556 -0.8263,1.9168 -1.2203,2.8832 z"
             id="path3174"
             style="fill:#78ff9d;fill-opacity:1;fill-rule:nonzero;stroke:none" />
          <path
             d="m 228.9672,410.7547 -25.3408,-8.1378 0,0 c 1.0464,-3.2388 2.207,-6.4396 3.4797,-9.5964 l 24.6673,9.9953 0,0 c -1.0253,2.5462 -1.9613,5.1274 -2.8062,7.7389 z"
             id="path3176"
             style="fill:#808080;fill-opacity:0.2;fill-rule:nonzero;stroke:none" />
          <path
             d="m 266.1951,498.1748 -21.9246,15.0895 0,0 C 223.8334,483.4312 218.3057,445.8369 229.2904,411.3837 l 25.3402,8.1399 0,0 c -8.4619,26.5991 -4.1958,55.6136 11.5645,78.6512 z"
             id="path3178"
             style="fill:#70ffe9;fill-opacity:1;fill-rule:nonzero;stroke:none" />
          <path
             d="m 233.8675,495.8641 -24.1915,11.0973 0,0 C 194.769,474.313 192.5579,437.2825 203.4738,403.0921 l 25.3402,8.1397 0,0 c -8.8825,27.8596 -7.0811,58.0276 5.0535,84.6323 z"
             id="path3180"
             style="fill:#808080;fill-opacity:1;fill-rule:nonzero;stroke:none" />
          <path
             d="m 236.2327,500.7482 -23.6546,12.2001 0,0 c -0.9372,-1.8251 -1.8354,-3.6699 -2.694,-5.5332 l 24.1923,-11.0956 0,0 c 0.6878,1.4911 1.4067,2.9676 2.1563,4.4287 z"
             id="path3182"
             style="fill:#808080;fill-opacity:1;fill-rule:nonzero;stroke:none" />
          <path
             d="m 243.858,513.5469 -21.9248,15.0893 0,0 c -3.3522,-4.8893 -6.4001,-9.9803 -9.1263,-15.2443 l 23.6554,-12.1984 0,0 c 2.2109,4.2648 4.6808,8.3903 7.3957,12.3534 z"
             id="path3184"
             style="fill:#808080;fill-opacity:0.2;fill-rule:nonzero;stroke:none" />
          <path
             d="m 328.8697,536.8192 -3.488,26.3859 0,0 c -32.7134,-4.3968 -62.0583,-22.3787 -80.8284,-49.5298 l 21.926,-15.0875 0,0 c 14.4998,20.9455 37.1449,34.8219 62.3904,38.2314 z"
             id="path3186"
             style="fill:#7091ff;fill-opacity:1;fill-rule:nonzero;stroke:none" />
          <path
             d="m 325.3095,563.6999 -3.4895,26.3857 0,0 c -40.318,-5.4044 -76.4849,-27.5679 -99.6038,-61.0382 l 21.9258,-15.0877 0,0 c 18.849,27.2652 48.3168,45.3234 81.1675,49.7402 z"
             id="path3188"
             style="fill:#7897ff;fill-opacity:1;fill-rule:nonzero;stroke:none" />
          <path
             d="m 320.98,590.4754 -3.6318,26.3664 0,0 c -47.5709,-6.6246 -90.183,-32.896 -117.4691,-72.4224 l 21.9257,-15.0879 0,0 c 23.0445,33.3627 59.0166,55.5403 99.1752,61.1439 z"
             id="path3190"
             style="fill:#7c9aff;fill-opacity:1;fill-rule:nonzero;stroke:none" />
          <path
             d="m 232.2382,582.5482 -2.5103,3.1389 0,0 c -13.4526,-10.7934 -25.2633,-23.4867 -35.0608,-37.6809 l 3.3113,-2.278 0,0 c 9.5742,13.8696 21.115,26.2727 34.2598,36.82 z"
             id="path3192"
             style="fill:#7ec0ff;fill-opacity:1;fill-rule:nonzero;stroke:none" />
          <path
             d="m 209.0817,569.634 -2.9395,2.7412 0,0 C 200.0851,565.86 194.5081,558.9144 189.4551,551.593 l 3.3113,-2.278 0,0 c 4.9407,7.158 10.3934,13.9488 16.3153,20.319 z"
             id="path3194"
             style="fill:#7fcbff;fill-opacity:1;fill-rule:nonzero;stroke:none" />
          <path
             d="m 219.1742,579.6651 -2.7138,2.9647 0,0 c -3.4505,-3.1684 -6.7788,-6.4672 -9.9777,-9.8894 l 2.9404,-2.7401 0,0 c 3.1264,3.3443 6.3791,6.5683 9.7511,9.6648 z"
             id="path3196"
             style="fill:#7fbbff;fill-opacity:1;fill-rule:nonzero;stroke:none" />
          <path
             d="m 226.093,585.7008 -2.5593,3.0991 0,0 c -2.2817,-1.8901 -4.5173,-3.8349 -6.7051,-5.8329 l 2.7149,-2.9637 0,0 c 2.1371,1.9515 4.3209,3.8512 6.5495,5.6975 z"
             id="path3198"
             style="fill:#7fb3ff;fill-opacity:1;fill-rule:nonzero;stroke:none" />
          <path
             d="m 269.1984,605.2623 -1.6546,3.6629 0,0 c -13.3743,-6.0672 -25.9453,-13.7679 -37.426,-22.9262 l 2.5114,-3.138 0,0 c 11.2182,8.9482 23.5014,16.4726 36.5692,22.4013 z"
             id="path3200"
             style="fill:#7e9bff;fill-opacity:1;fill-rule:nonzero;stroke:none" />
          <path
             d="m 233.7338,591.6911 -2.3885,3.2325 0,0 c -1.7501,-1.2973 -3.477,-2.6256 -5.1799,-3.9842 l 2.5113,-3.138 0,0 c 1.6626,1.3263 3.3486,2.6231 5.0571,3.8897 z"
             id="path3202"
             style="fill:#7faaff;fill-opacity:1;fill-rule:nonzero;stroke:none" />
          <path
             d="m 229.973,596.7789 -2.3886,3.2325 0,0 c -1.8149,-1.3452 -3.6056,-2.7226 -5.3715,-4.1315 l 2.5114,-3.138 0,0 c 1.7255,1.3766 3.4753,2.7225 5.2487,4.037 z"
             id="path3204"
             style="fill:#808080;fill-opacity:1;fill-rule:nonzero;stroke:none" />
          <path
             d="m 238.8356,595.3374 -2.2746,3.3137 0,0 c -1.623,-1.1178 -3.228,-2.2615 -4.8142,-3.4307 l 2.3897,-3.2317 0,0 c 1.5484,1.1413 3.1149,2.2576 4.6991,3.3487 z"
             id="path3206"
             style="fill:#7fa6ff;fill-opacity:1;fill-rule:nonzero;stroke:none" />
          <path
             d="m 235.2541,600.553 -2.2747,3.3137 0,0 c -1.6834,-1.1593 -3.3482,-2.3456 -4.9935,-3.5585 l 2.3897,-3.2316 0,0 c 1.6074,1.1848 3.2338,2.3438 4.8785,3.4764 z"
             id="path3208"
             style="fill:#808080;fill-opacity:1;fill-rule:nonzero;stroke:none" />
          <path
             d="m 243.9319,598.7212 -2.1608,3.389 0,0 c -1.616,-1.0338 -3.2157,-2.0927 -4.7985,-3.1765 l 2.2757,-3.3129 0,0 c 1.545,1.0578 3.1064,2.0914 4.6836,3.1004 z"
             id="path3210"
             style="fill:#7fa1ff;fill-opacity:1;fill-rule:nonzero;stroke:none" />
          <path
             d="m 240.5296,604.0555 -2.1608,3.389 0,0 c -1.6764,-1.0723 -3.3358,-2.1708 -4.9777,-3.2951 l 2.2757,-3.313 0,0 c 1.604,1.0983 3.2252,2.1715 4.8628,3.2191 z"
             id="path3212"
             style="fill:#808080;fill-opacity:1;fill-rule:nonzero;stroke:none" />
          <path
             d="m 248.8915,601.7823 -2.05,3.4572 0,0 c -1.5639,-0.9306 -3.1139,-1.8843 -4.6494,-2.8608 l 2.1619,-3.3882 0,0 c 1.4986,0.9529 3.0113,1.8836 4.5375,2.7918 z"
             id="path3214"
             style="fill:#7f9cff;fill-opacity:1;fill-rule:nonzero;stroke:none" />
          <path
             d="m 245.6635,607.2239 -2.05,3.4571 0,0 c -1.6225,-0.9654 -3.2306,-1.9548 -4.8237,-2.968 l 2.1619,-3.3883 0,0 c 1.5562,0.9897 3.127,1.9561 4.7118,2.8992 z"
             id="path3216"
             style="fill:#808080;fill-opacity:1;fill-rule:nonzero;stroke:none" />
          <path
             d="m 253.7352,604.564 -1.9418,3.519 0,0 c -1.5196,-0.8415 -3.0273,-1.7046 -4.5225,-2.5888 l 2.0512,-3.4564 0,0 c 1.4591,0.8628 2.9303,1.7049 4.4131,2.5262 z"
             id="path3218"
             style="fill:#7f98ff;fill-opacity:1;fill-rule:nonzero;stroke:none" />
          <path
             d="m 250.6776,610.103 -1.9418,3.519 0,0 c -1.5769,-0.8731 -3.1414,-1.7687 -4.6928,-2.6862 l 2.0511,-3.4565 0,0 c 1.5154,0.8962 3.0434,1.7708 4.5835,2.6237 z"
             id="path3220"
             style="fill:#808080;fill-opacity:1;fill-rule:nonzero;stroke:none" />
          <path
             d="m 258.5917,607.1575 -1.8333,3.5767 0,0 c -1.5204,-0.7822 -3.0298,-1.5856 -4.5278,-2.4099 l 1.943,-3.5183 0,0 c 1.4617,0.8042 2.9346,1.5882 4.4181,2.3515 z"
             id="path3222"
             style="fill:#7f94ff;fill-opacity:1;fill-rule:nonzero;stroke:none" />
          <path
             d="m 255.7048,612.7874 -1.8334,3.5767 0,0 c -1.5777,-0.8116 -3.144,-1.6453 -4.6985,-2.5007 l 1.943,-3.5184 0,0 c 1.5182,0.8354 3.048,1.6496 4.5889,2.4424 z"
             id="path3224"
             style="fill:#808080;fill-opacity:1;fill-rule:nonzero;stroke:none" />
          <path
             d="m 263.5102,609.5943 -1.7235,3.6309 0,0 c -1.5384,-0.7331 -3.0666,-1.4876 -4.584,-2.2631 l 1.8345,-3.5761 0,0 c 1.4808,0.7567 2.9719,1.4928 4.473,2.2083 z"
             id="path3226"
             style="fill:#7f90ff;fill-opacity:1;fill-rule:nonzero;stroke:none" />
          <path
             d="m 260.7962,615.3095 -1.7235,3.6309 0,0 c -1.5965,-0.7607 -3.1823,-1.5436 -4.757,-2.3484 l 1.8346,-3.5762 0,0 c 1.5379,0.7861 3.0867,1.5507 4.6459,2.2937 z"
             id="path3228"
             style="fill:#808080;fill-opacity:1;fill-rule:nonzero;stroke:none" />
          <path
             d="m 299.5851,615.7816 -0.9515,3.905 0,0 c -10.5116,-2.5789 -20.7658,-6.1121 -30.6348,-10.5558 l 1.6559,-3.6623 0,0 c 9.6423,4.3412 19.6606,7.7932 29.9304,10.3131 z"
             id="path3230"
             style="fill:#7e7eff;fill-opacity:1;fill-rule:nonzero;stroke:none" />
          <path
             d="m 307.9024,617.6077 -0.7591,3.9469 0,0 c -2.688,-0.5214 -5.3636,-1.1048 -8.0247,-1.7497 l 0.9529,-3.9047 0,0 c 2.5968,0.6293 5.2078,1.1986 7.8309,1.7075 z"
             id="path3232"
             style="fill:#8d7eff;fill-opacity:1;fill-rule:nonzero;stroke:none" />
          <path
             d="m 312.4197,618.4223 -0.6546,3.9656 0,0 c -1.38,-0.2301 -2.7573,-0.4764 -4.1315,-0.7389 l 0.7605,-3.9467 0,0 c 1.339,0.2558 2.6809,0.4958 4.0256,0.72 z"
             id="path3234"
             style="fill:#927eff;fill-opacity:1;fill-rule:nonzero;stroke:none" />
          <path
             d="m 317.0325,619.1278 -0.5479,3.9817 0,0 c -1.4115,-0.1964 -2.8205,-0.4099 -4.2268,-0.6402 l 0.6559,-3.9654 0,0 c 1.3704,0.2244 2.7434,0.4324 4.1188,0.6239 z"
             id="path3236"
             style="fill:#808080;fill-opacity:0.2;fill-rule:nonzero;stroke:none" />
          <path
             d="m 391.8887,521.9998 15.0057,21.9821 0,0 c -23.7357,16.1273 -52.5616,22.9901 -81.0181,19.2886 l 3.4904,-26.3856 0,0 c 21.9592,2.8421 44.1992,-2.4528 62.522,-14.8851 z"
             id="path3238"
             style="fill:#c570ff;fill-opacity:1;fill-rule:nonzero;stroke:none" />
          <path
             d="m 395.1401,551.5653 12.2886,23.6088 0,0 c -26.1742,13.5653 -55.8742,18.7921 -85.107,14.9779 l 3.4901,-26.3856 0,0 c 23.8129,3.0974 48.0036,-1.1599 69.3283,-12.2011 z"
             id="path3240"
             style="fill:#bf78ff;fill-opacity:1;fill-rule:nonzero;stroke:none" />
          <path
             d="m 346.6111,591.7567 1.0777,26.5936 0,0 c -9.6605,0.3771 -19.3356,-0.0635 -28.9218,-1.3169 l 3.49,-26.3856 0,0 c 8.0724,1.0532 16.2193,1.4242 24.3541,1.1089 z"
             id="path3242"
             style="fill:#808080;fill-opacity:1;fill-rule:nonzero;stroke:none" />
          <path
             d="m 369.243,589.0856 5.2349,26.0955 0,0 c -8.6692,1.7257 -17.4588,2.7785 -26.2903,3.149 l -1.0761,-26.5937 0,0 c 7.4343,-0.3139 14.8334,-1.2001 22.1315,-2.6508 z"
             id="path3244"
             style="fill:#808080;fill-opacity:1;fill-rule:nonzero;stroke:none" />
          <path
             d="m 389.6654,583.4465 8.9852,25.0529 0,0 c -7.7268,2.7582 -15.6415,4.9584 -23.6832,6.5835 l -5.2333,-26.0958 0,0 c 6.7673,-1.3695 13.4281,-3.2211 19.9313,-5.5406 z"
             id="path3246"
             style="fill:#808080;fill-opacity:1;fill-rule:nonzero;stroke:none" />
          <path
             d="m 398.879,579.8006 10.6768,24.3801 0,0 c -3.4322,1.4969 -6.9125,2.8811 -10.4353,4.1502 l -8.9836,-25.0534 0,0 c 2.9509,-1.064 5.8665,-2.2236 8.7421,-3.4769 z"
             id="path3248"
             style="fill:#808080;fill-opacity:1;fill-rule:nonzero;stroke:none" />
          <path
             d="m 404.9857,576.9685 11.7978,23.8578 0,0 c -2.2336,1.1004 -4.491,2.152 -6.7704,3.1541 l -10.6753,-24.3807 0,0 c 1.9013,-0.8365 3.7844,-1.7138 5.6479,-2.6312 z"
             id="path3250"
             style="fill:#808080;fill-opacity:1;fill-rule:nonzero;stroke:none" />
          <path
             d="m 404.8321,545.9471 14.4765,22.3341 0,0 c -3.7085,2.3945 -7.5249,4.6176 -11.4371,6.6624 l -12.2869,-23.6096 0,0 c 3.1625,-1.6546 6.2482,-3.452 9.2475,-5.3869 z"
             id="path3252"
             style="fill:#f278ff;fill-opacity:1;fill-rule:nonzero;stroke:none" />
          <path
             d="m 418.8959,569.1401 14.3509,22.415 0,0 c -4.1761,2.6649 -8.4657,5.1477 -12.8567,7.4412 l -12.287,-23.6096 0,0 c 3.6856,-1.9263 7.2865,-4.0104 10.7928,-6.2466 z"
             id="path3254"
             style="fill:#f27cff;fill-opacity:1;fill-rule:nonzero;stroke:none" />
          <path
             d="m 428.5863,597.1036 2.0312,3.4681 0,0 c -2.4035,1.4026 -4.8397,2.7486 -7.3064,4.0368 l -1.8549,-3.5655 0,0 c 2.4071,-1.2573 4.7845,-2.5708 7.1301,-3.9394 z"
             id="path3256"
             style="fill:#ef7eff;fill-opacity:1;fill-rule:nonzero;stroke:none" />
          <path
             d="m 433.6574,594.0273 2.1484,3.3969 0,0 c -1.5706,0.9898 -3.1566,1.9551 -4.7574,2.8953 l -2.03,-3.4689 0,0 c 1.5609,-0.9169 3.1075,-1.8581 4.639,-2.8233 z"
             id="path3258"
             style="fill:#f57eff;fill-opacity:1;fill-rule:nonzero;stroke:none" />
          <path
             d="m 410.6918,504.9456 20.5132,16.9585 0,0 c -6.921,8.3347 -14.9636,15.67 -23.8985,21.7965 l -15.0037,-21.9834 0,0 c 6.8717,-4.7183 13.0597,-10.3621 18.389,-16.7716 z"
             id="path3260"
             style="fill:#ff70ed;fill-opacity:1;fill-rule:nonzero;stroke:none" />
          <path
             d="m 431.4073,522.4426 20.4719,17.0083 0,0 c -8.492,10.1847 -18.3467,19.1508 -29.2861,26.6454 l -15.0039,-21.9833 0,0 c 8.8943,-6.0987 16.9085,-13.3903 23.8181,-21.6704 z"
             id="path3262"
             style="fill:#808080;fill-opacity:1;fill-rule:nonzero;stroke:none" />
          <path
             d="m 418.3815,494.1884 22.7624,13.7932 0,0 c -2.8829,4.7344 -6.098,9.2584 -9.621,13.538 l -20.5117,-16.9604 0,0 c 2.6967,-3.28 5.1595,-6.7455 7.3703,-10.3708 z"
             id="path3264"
             style="fill:#ff70cd;fill-opacity:1;fill-rule:nonzero;stroke:none" />
          <path
             d="m 437.0011,515.1824 21.7328,15.3645 0,0 c -2.0047,2.8251 -4.1105,5.5771 -6.3132,8.2506 l -20.5118,-16.9601 0,0 c 1.7759,-2.1572 3.4743,-4.377 5.0922,-6.655 z"
             id="path3266"
             style="fill:#ff78d5;fill-opacity:1;fill-rule:nonzero;stroke:none" />
          <path
             d="m 439.2596,511.8854 22.2416,14.6182 0,0 c -0.8078,1.2244 -1.6343,2.4365 -2.4791,3.6358 l -21.7317,-15.3661 0,0 c 0.6707,-0.9528 1.3271,-1.9156 1.9692,-2.8879 z"
             id="path3268"
             style="fill:#808080;fill-opacity:1;fill-rule:nonzero;stroke:none" />
          <path
             d="m 441.571,508.2416 22.7623,13.7935 0,0 c -0.8302,1.3645 -1.6829,2.7151 -2.5579,4.0514 l -22.2406,-14.6198 0,0 c 0.6961,-1.064 1.3749,-2.1391 2.0362,-3.2251 z"
             id="path3270"
             style="fill:#808080;fill-opacity:0.2;fill-rule:nonzero;stroke:none" />
          <path
             d="m 420.6635,490.2245 23.4293,12.6274 0,0 c -0.8604,1.5882 -1.7574,3.1562 -2.6903,4.703 l -22.7612,-13.7953 0,0 c 0.7005,-1.1631 1.3747,-2.3417 2.0222,-3.5351 z"
             id="path3272"
             style="fill:#808080;fill-opacity:0.2;fill-rule:nonzero;stroke:none" />
          <path
             d="m 376.231,456.1659 25.8047,6.5205 0,0 c -1.2356,4.8078 -3.035,9.4529 -5.3607,13.8384 l -23.4632,-12.5648 0,0 c 1.3023,-2.4735 2.3154,-5.0888 3.0192,-7.7941 z"
             id="path3274"
             style="fill:#ff408a;fill-opacity:1;fill-rule:nonzero;stroke:none" />
          <path
             d="m 398.9987,472.9007 24.3457,10.7552 0,0 c -0.855,1.9206 -1.777,3.8108 -2.7641,5.667 l -23.4636,-12.5638 0,0 c 0.6706,-1.2646 1.2983,-2.5514 1.882,-3.8584 z"
             id="path3276"
             style="fill:#808080;fill-opacity:1;fill-rule:nonzero;stroke:none" />
          <path
             d="m 400.6274,468.8922 25.0214,9.0729 0,0 c -0.6462,1.7664 -1.3475,3.5121 -2.1029,5.2347 l -24.3444,-10.7582 0,0 c 0.5108,-1.1686 0.9863,-2.3522 1.4259,-3.5494 z"
             id="path3278"
             style="fill:#ff60a0;fill-opacity:1;fill-rule:nonzero;stroke:none" />
          <path
             d="m 426.0859,478.2255 25.0117,9.0993 0,0 c -0.8447,2.3061 -1.7616,4.5851 -2.7493,6.8336 l -24.3445,-10.7578 0,0 c 0.7469,-1.7033 1.4413,-3.4291 2.0821,-5.1751 z"
             id="path3280"
             style="fill:#ff70a9;fill-opacity:1;fill-rule:nonzero;stroke:none" />
          <path
             d="m 451.5671,487.4967 25.0116,9.0996 0,0 c -1.0521,2.8758 -2.1953,5.7175 -3.4281,8.5207 l -24.3446,-10.7575 0,0 c 0.992,-2.2581 1.9128,-4.5468 2.7611,-6.8628 z"
             id="path3282"
             style="fill:#ff78ae;fill-opacity:1;fill-rule:nonzero;stroke:none" />
          <path
             d="m 477.0482,496.768 25.0116,9.0997 0,0 c -1.2594,3.4457 -2.6291,6.8501 -4.1069,10.208 l -24.3446,-10.7574 0,0 c 1.237,-2.8129 2.3843,-5.6644 3.4399,-8.5503 z"
             id="path3284"
             style="fill:#ff7cb0;fill-opacity:1;fill-rule:nonzero;stroke:none" />
          <path
             d="m 402.52,462.8108 25.8042,6.5215 0,0 c -0.7057,2.7594 -1.5418,5.4838 -2.5054,8.164 l -25.0203,-9.076 0,0 c 0.6599,-1.8423 1.2344,-3.7141 1.7215,-5.6095 z"
             id="path3286"
             style="fill:#808080;fill-opacity:0.2;fill-rule:nonzero;stroke:none" />
          <path
             d="m 377.0586,452.0018 26.3883,3.4718 0,0 c -0.3073,2.2651 -0.7377,4.5117 -1.2891,6.7299 l -25.8034,-6.5257 0,0 c 0.2976,-1.2125 0.5327,-2.4394 0.7042,-3.676 z"
             id="path3288"
             style="fill:#ff4066;fill-opacity:1;fill-rule:nonzero;stroke:none" />
          <path
             d="m 403.1517,460.1094 26.0644,5.3885 0,0 c -0.2352,1.1218 -0.4918,2.239 -0.7697,3.351 l -25.8034,-6.5247 0,0 c 0.1828,-0.7352 0.3524,-1.4736 0.5087,-2.2148 z"
             id="path3290"
             style="fill:#ff6085;fill-opacity:1;fill-rule:nonzero;stroke:none" />
          <path
             d="m 403.9424,455.5409 26.388,3.4728 0,0 c -0.2703,2.0095 -0.6082,4.0092 -1.0133,5.9959 l -26.0637,-5.3918 0,0 c 0.2738,-1.3511 0.5036,-2.7108 0.689,-4.0769 z"
             id="path3292"
             style="fill:#808080;fill-opacity:0.2;fill-rule:nonzero;stroke:none" />
          <path
             d="m 377.221,450.6436 26.5002,2.478 0,0 c -0.0606,0.6204 -0.1303,1.2399 -0.2092,1.8583 l -26.3877,-3.4773 0,0 c 0.0357,-0.2859 0.0679,-0.5723 0.0967,-0.859 z"
             id="path3294"
             style="fill:#ff4056;fill-opacity:1;fill-rule:nonzero;stroke:none" />
          <path
             d="m 404.2188,453.1702 26.4999,2.479 0,0 c -0.0924,0.9584 -0.2002,1.9153 -0.3232,2.8702 l -26.3876,-3.4762 0,0 c 0.0796,-0.6233 0.1499,-1.2477 0.2109,-1.873 z"
             id="path3296"
             style="fill:#ff6072;fill-opacity:1;fill-rule:nonzero;stroke:none" />
          <path
             d="m 377.403,447.2517 26.6157,-0.003 0,0 c -0.006,1.5392 -0.0685,3.0776 -0.1872,4.6122 l -26.528,-2.1606 0,0 c 0.0607,-0.815 0.0938,-1.6317 0.0995,-2.4489 z"
             id="path3298"
             style="fill:#9831a1;fill-opacity:0.5;fill-rule:nonzero;stroke:none" />
        </g>
      </g>
    </g>
  </g>
</svg>
