
<svg width="84px" height="68px" viewBox="-1 0 84 68" version="1.1" xmlns="http://www.w3.org/2000/svg" xmlns:xlink="http://www.w3.org/1999/xlink">
    <!-- Generator: Sketch 3.8.3 (29802) - http://www.bohemiancoding.com/sketch -->
    <desc>Created with Sketch.</desc>
    <defs></defs>
    <g id="USB-Drive" stroke="none" stroke-width="1" fill="none" fill-rule="evenodd">
        <path d="M80.3890237,47.1641338 L69.309161,4.33325688 C68.6897478,1.93882179 66.1247049,0 63.579259,0 L18.807717,0 C16.2615912,0 13.6969066,1.94006519 13.077815,4.33325688 L2.00036542,47.1548057 C3.37145235,45.9196746 5.18863718,45.1678633 7.18660357,45.1678633 L75.2003725,45.1678633 C77.1963751,45.1678633 79.015983,45.9241247 80.3890237,47.1641338 Z M47.6830575,15.8658537 L47.6830575,20.4579164 L42.1081081,26.8239527 L42.1081081,32.0237914 C43.495957,32.3034485 44.5405405,33.5214827 44.5405405,34.9817073 C44.5405405,36.6486643 43.1792442,38 41.5,38 C39.8207558,38 38.4594595,36.6486643 38.4594595,34.9817073 C38.4594595,33.5214827 39.504043,32.3034485 40.8918919,32.0237914 L40.8918919,30.1584843 L35.2162162,23.6774286 L35.2162162,19.3847569 C34.5076533,19.1361484 34,18.4653394 34,17.6768293 C34,16.6766551 34.8167778,15.8658537 35.8243243,15.8658537 C36.8318708,15.8658537 37.6486486,16.6766551 37.6486486,17.6768293 C37.6486486,18.5406898 37.0393364,19.2632791 36.2240643,19.4441963 L36.2240643,23.3212305 L40.8918919,28.6424051 L40.8918919,11.0365854 L38.4594595,11.0365854 L41.5,5 L44.5405405,11.0365854 L42.1081081,11.0365854 L42.1081081,25.3080682 L46.6752094,20.1017183 L46.6752094,15.8658537 L45.3513514,15.8658537 L45.3513514,12.2439024 L49,12.2439024 L49,15.8658537 L47.6830575,15.8658537 Z" id="Combined-Shape" fill="#C4C4C4"></path>
        <path d="M0,57.25 C0,51.3129389 4.8082471,46.5 10.7411244,46.5 L71.2588756,46.5 C77.1910348,46.5 82,51.3116335 82,57.25 C82,63.1870611 77.1917529,68 71.2588756,68 L10.7411244,68 C4.80896518,68 0,63.1883665 0,57.25 Z M69.75,62 C72.3733526,62 74.5,59.8733526 74.5,57.25 C74.5,54.6266474 72.3733526,52.5 69.75,52.5 C67.1266474,52.5 65,54.6266474 65,57.25 C65,59.8733526 67.1266474,62 69.75,62 Z" id="Combined-Shape" fill="#969696"></path>
        <g id="USB" transform="translate(34.000000, 5.000000)"></g>
    </g>
</svg>