<?xml version="1.0" encoding="UTF-8" standalone="no"?>
<svg width="83px" height="102px" viewBox="0 0 83 102" version="1.1" xmlns="http://www.w3.org/2000/svg" xmlns:xlink="http://www.w3.org/1999/xlink">
    <!-- Generator: Sketch 39.1 (31720) - http://www.bohemiancoding.com/sketch -->
    <title>aac</title>
    <desc>Created with Sketch.</desc>
    <defs>
        <linearGradient x1="0%" y1="0%" x2="100%" y2="100%" id="linearGradient-1">
            <stop stop-color="#F6F6F6" offset="0%"></stop>
            <stop stop-color="#CECECE" offset="100%"></stop>
        </linearGradient>
        <linearGradient x1="21.3994966%" y1="80.1338005%" x2="50%" y2="50%" id="linearGradient-2">
            <stop stop-color="#EEEEEE" offset="0%"></stop>
            <stop stop-color="#E5E4E4" offset="100%"></stop>
        </linearGradient>
    </defs>
    <g id="Icons" stroke="none" stroke-width="1" fill="none" fill-rule="evenodd">
        <g id="aac">
            <path d="M53.9462592,0 L0,0 L0,102 L83,102 L83,28.0763718 L53.9462592,28.076373 L53.9462592,-1.11022302e-16 Z" id="Combined-Shape" fill="url(#linearGradient-1)"></path>
            <polygon id="Path-2-Copy" fill="url(#linearGradient-2)" points="56.4957983 0 56.4957983 25.6054138 82.9155003 25.6054127"></polygon>
            <text id="AAC" font-family="SourceSansPro-Light, Source Sans Pro" font-size="20" font-weight="300" fill="#6B6B6B">
                <tspan x="23" y="88">AAC</tspan>
            </text>
            <g id="MusicalNoteDouble" transform="translate(24.000000, 35.000000)" fill="#344B65">
                <polygon id="Rectangle-18" points="30 0 30 3.8118855 8.21428571 7.19101124 8.21428571 3.37912573"></polygon>
                <polygon id="Rectangle-18-Copy" points="30 5.75280899 30 9.56469449 8.21428571 12.9438202 8.21428571 9.13193472"></polygon>
                <rect id="Rectangle-19" x="8.21428571" y="3.59550562" width="2.5" height="23.3707865"></rect>
                <rect id="Rectangle-19-Copy" x="27.5" y="1.43820225" width="2.5" height="23.3707865"></rect>
                <path d="M10.7142857,27.0667205 C10.7142857,24.9816905 8.31581116,23.6973782 5.35714286,24.1981287 C2.39847455,24.6988792 0,26.7950686 0,28.8800987 C0,30.9651287 2.39847455,32.249441 5.35714286,31.7486905 C8.31581116,31.24794 10.7142857,29.1517506 10.7142857,27.0667205 Z" id="Oval-13"></path>
                <path d="M30,24.9094172 C30,22.8243871 27.6015254,21.5400748 24.6428571,22.0408253 C21.6841888,22.5415759 19.2857143,24.6377652 19.2857143,26.7227953 C19.2857143,28.8078254 21.6841888,30.0921377 24.6428571,29.5913871 C27.6015254,29.0906366 30,26.9944472 30,24.9094172 Z" id="Oval-13-Copy"></path>
            </g>
        </g>
    </g>
</svg>