<?xml version="1.0" encoding="UTF-8" standalone="no"?>
<svg width="83px" height="102px" viewBox="0 0 83 102" version="1.1" xmlns="http://www.w3.org/2000/svg" xmlns:xlink="http://www.w3.org/1999/xlink">
    <!-- Generator: Sketch 39.1 (31720) - http://www.bohemiancoding.com/sketch -->
    <title>aiff</title>
    <desc>Created with Sketch.</desc>
    <defs>
        <linearGradient x1="0%" y1="0%" x2="100%" y2="100%" id="linearGradient-1">
            <stop stop-color="#F6F6F6" offset="0%"></stop>
            <stop stop-color="#CECECE" offset="100%"></stop>
        </linearGradient>
        <linearGradient x1="21.3994966%" y1="80.1338005%" x2="50%" y2="50%" id="linearGradient-2">
            <stop stop-color="#EEEEEE" offset="0%"></stop>
            <stop stop-color="#E5E4E4" offset="100%"></stop>
        </linearGradient>
        <linearGradient x1="89.5921428%" y1="23.0904839%" x2="14.5172685%" y2="86.6605116%" id="linearGradient-3">
            <stop stop-color="#CFCFCF" offset="0%"></stop>
            <stop stop-color="#A7A6A6" offset="100%"></stop>
        </linearGradient>
    </defs>
    <g id="Icons" stroke="none" stroke-width="1" fill="none" fill-rule="evenodd">
        <g id="aiff">
            <path d="M53.9462592,0 L0,0 L0,102 L83,102 L83,28.0763718 L53.9462592,28.076373 L53.9462592,-1.11022302e-16 Z" id="Combined-Shape" fill="url(#linearGradient-1)"></path>
            <polygon id="Path-2-Copy" fill="url(#linearGradient-2)" points="56.4957983 0 56.4957983 25.6054138 82.9155003 25.6054127"></polygon>
            <text id="AIFF" font-family="SourceSansPro-Light, Source Sans Pro" font-size="20" font-weight="300" fill="#6B6B6B">
                <tspan x="25" y="88">AIFF</tspan>
            </text>
            <g id="NoteOverDisk" transform="translate(21.000000, 30.000000)">
                <path d="M41.4733452,21 C44.4077627,9.7161942 37.7796144,0.568862247 26.6689617,0.568862247 C15.5583089,0.568862247 4.17252981,9.7161942 1.2381123,21 C-1.69630522,32.2838058 4.93184306,41.4311378 16.0424958,41.4311378 C27.1531486,41.4311378 38.5389277,32.2838058 41.4733452,21 Z M25.9279143,21 C26.5948274,18.4354987 25.08843,16.3565596 22.5632817,16.3565596 C20.0381333,16.3565596 17.4504563,18.4354987 16.7835432,21 C16.1166301,23.5645013 17.6230275,25.6434404 20.1481758,25.6434404 C22.6733242,25.6434404 25.2610012,23.5645013 25.9279143,21 Z" id="Combined-Shape" fill="url(#linearGradient-3)"></path>
                <g id="MusicalNoteDouble-Copy" transform="translate(13.130435, 8.636364)" fill="#344B65">
                    <polygon id="Rectangle-18" points="22.826087 0 22.826087 2.94554789 6.25 5.5566905 6.25 2.61114261"></polygon>
                    <rect id="Rectangle-19" x="6.25" y="2.77834525" width="1.90217391" height="18.0592441"></rect>
                    <rect id="Rectangle-19-Copy" x="20.923913" y="1.1113381" width="1.90217391" height="18.0592441"></rect>
                    <path d="M8.15217391,20.9151931 C8.15217391,19.3040335 6.32724762,18.3116104 4.07608696,18.698554 C1.82492629,19.0854976 0,20.7052803 0,22.3164399 C0,23.9275995 1.82492629,24.9200226 4.07608696,24.533079 C6.32724762,24.1461354 8.15217391,22.5263527 8.15217391,20.9151931 Z" id="Oval-13"></path>
                    <path d="M22.826087,19.248186 C22.826087,17.6370264 21.0011607,16.6446032 18.75,17.0315468 C16.4988393,17.4184905 14.673913,19.0382731 14.673913,20.6494327 C14.673913,22.2605923 16.4988393,23.2530155 18.75,22.8660719 C21.0011607,22.4791283 22.826087,20.8593456 22.826087,19.248186 Z" id="Oval-13-Copy"></path>
                </g>
            </g>
        </g>
    </g>
</svg>