<?xml version="1.0" encoding="UTF-8" standalone="no"?>
<svg width="83px" height="102px" viewBox="0 0 83 102" version="1.1" xmlns="http://www.w3.org/2000/svg" xmlns:xlink="http://www.w3.org/1999/xlink">
    <!-- Generator: Sketch 39.1 (31720) - http://www.bohemiancoding.com/sketch -->
    <title>dll</title>
    <desc>Created with Sketch.</desc>
    <defs>
        <linearGradient x1="0%" y1="0%" x2="100%" y2="100%" id="linearGradient-1">
            <stop stop-color="#F6F6F6" offset="0%"></stop>
            <stop stop-color="#CECECE" offset="100%"></stop>
        </linearGradient>
        <linearGradient x1="21.3994966%" y1="80.1338005%" x2="50%" y2="50%" id="linearGradient-2">
            <stop stop-color="#EEEEEE" offset="0%"></stop>
            <stop stop-color="#E5E4E4" offset="100%"></stop>
        </linearGradient>
        <linearGradient x1="50%" y1="20.0711367%" x2="50%" y2="120.071137%" id="linearGradient-3">
            <stop stop-color="#8C8C8C" offset="0%"></stop>
            <stop stop-color="#969696" offset="100%"></stop>
        </linearGradient>
    </defs>
    <g id="Icons" stroke="none" stroke-width="1" fill="none" fill-rule="evenodd">
        <g id="dll">
            <path d="M53.9462592,0 L0,0 L0,102 L83,102 L83,28.0763718 L53.9462592,28.076373 L53.9462592,-1.11022302e-16 Z" id="Combined-Shape" fill="url(#linearGradient-1)"></path>
            <polygon id="Path-2-Copy" fill="url(#linearGradient-2)" points="56.4957983 0 56.4957983 25.6054138 82.9155003 25.6054127"></polygon>
            <text id="DLL" font-family="SourceSansPro-Light, Source Sans Pro" font-size="20" font-weight="300" fill="#6B6B6B">
                <tspan x="28" y="90">DLL</tspan>
            </text>
            <g id="Gear" transform="translate(11.000000, 20.000000)" fill="url(#linearGradient-3)">
                <path d="M16.5548363,6.12586099 C16.8378597,6.04025162 17.1243574,5.9627244 17.414065,5.89354569 L19.2883151,0.259226148 L25.9837738,0.845002882 L26.8455359,6.68109344 C27.3144105,6.88054023 27.7712711,7.10299793 28.2147214,7.34706065 L32.8057764,4.52258577 L37.5582653,9.27507468 L34.601846,14.0805993 C34.7745281,14.4369001 34.9338675,14.8009567 35.0792096,15.1721099 L40.2012055,15.8373089 L40.9037449,22.5215247 L35.7178707,24.3477233 C35.5945744,24.8675924 35.4449224,25.3771619 35.2704154,25.8749209 L38.9327737,29.9998832 L35.0777468,35.5054321 L29.6147642,33.3424453 C29.3077164,33.5578852 28.9923978,33.7622069 28.6693842,33.9548307 L28.7311045,39.8449919 L22.2097136,41.4709573 L19.3913102,36.0336239 L19.4774787,36.0121397 C19.1690944,35.9826029 18.8633966,35.943789 18.5606639,35.8959783 L14.6042752,40.5447774 L8.6157898,37.4934917 L10.0559254,31.5408451 L10.2044196,31.6165067 C10.0191645,31.430563 9.83864979,31.2398355 9.66307369,31.0445237 L3.67206479,32.057865 L1.04594749,25.8711203 L5.81613691,22.3542788 C5.79421902,22.1382249 5.77676647,21.9208404 5.76387367,21.7022204 L0.626868857,18.8077087 L2.47943697,12.3470358 L8.08852476,12.6017777 C8.32398095,12.2277699 8.57510847,11.8647496 8.84097772,11.5136526 L6.84455936,5.90716785 L12.481293,2.24663023 L16.5548363,6.12586099 Z M20.8003803,27.5512992 C24.4401131,27.5512992 27.3906995,24.5808602 27.3906995,20.9166381 C27.3906995,17.252416 24.4401131,14.281977 20.8003803,14.281977 C17.1606476,14.281977 14.2100612,17.252416 14.2100612,20.9166381 C14.2100612,24.5808602 17.1606476,27.5512992 20.8003803,27.5512992 Z" id="Combined-Shape"></path>
            </g>
            <g id="Gear" transform="translate(44.000000, 50.000000)" fill="url(#linearGradient-3)">
                <path d="M9.27667506,3.50363713 C9.43835402,3.45359354 9.60205953,3.40834083 9.76763462,3.36803995 L10.8229881,0.151190778 L14.5789772,0.479797239 L15.0576686,3.81689177 C15.3284634,3.93414226 15.5921187,4.06532845 15.8477801,4.20957403 L18.425258,2.60917352 L21.0912884,5.27520388 L19.3933919,8.00970104 C19.5050437,8.24162543 19.6069611,8.47935986 19.6985969,8.72234318 L22.5828628,9.08482573 L22.9769702,12.8345077 L20.0509763,13.8513365 C19.9756704,14.1855449 19.8816799,14.5124196 19.7701937,14.8307414 L21.8658429,17.171565 L19.7032668,20.2600437 L16.6409155,19.0329047 C16.4576982,19.1649639 16.269181,19.289813 16.0757559,19.4070499 L16.1249817,22.7770649 L12.4666405,23.6891918 L10.8705192,20.5785551 L10.8870504,20.5744334 C10.7258718,20.5579379 10.5660151,20.536839 10.4076073,20.5112669 L8.17850602,23.1524967 L4.81911178,21.4407999 L5.65526506,18.0460228 L5.75334314,18.0959961 C5.62820071,17.9692572 5.50686328,17.8385764 5.38952239,17.7041502 L2.0312765,18.2864451 L0.558088746,14.8158322 L3.26895187,12.8344572 C3.25142069,12.6697516 3.23835043,12.5036713 3.22986763,12.3363461 L0.321726787,10.7134955 L1.36097232,7.08921564 L4.51029256,7.24527402 C4.65524243,7.00760935 4.81102077,6.77760148 4.97691903,6.55597702 L3.82267213,3.35639276 L6.98474221,1.30292043 L9.27667506,3.50363713 Z M11.668506,15.7435995 C13.7103073,15.7435995 15.3655143,14.0462058 15.3655143,11.9523646 C15.3655143,9.85852342 13.7103073,8.16112974 11.668506,8.16112974 C9.62670474,8.16112974 7.97149775,9.85852342 7.97149775,11.9523646 C7.97149775,14.0462058 9.62670474,15.7435995 11.668506,15.7435995 Z" id="Combined-Shape"></path>
            </g>
        </g>
    </g>
</svg>