<?xml version="1.0" encoding="UTF-8" standalone="no"?>
<svg width="83px" height="102px" viewBox="0 0 83 102" version="1.1" xmlns="http://www.w3.org/2000/svg" xmlns:xlink="http://www.w3.org/1999/xlink">
    <!-- Generator: Sketch 39.1 (31720) - http://www.bohemiancoding.com/sketch -->
    <title>exif</title>
    <desc>Created with Sketch.</desc>
    <defs>
        <linearGradient x1="0%" y1="0%" x2="100%" y2="100%" id="linearGradient-1">
            <stop stop-color="#F6F6F6" offset="0%"></stop>
            <stop stop-color="#CECECE" offset="100%"></stop>
        </linearGradient>
        <linearGradient x1="21.3994966%" y1="80.1338005%" x2="50%" y2="50%" id="linearGradient-2">
            <stop stop-color="#EEEEEE" offset="0%"></stop>
            <stop stop-color="#E5E4E4" offset="100%"></stop>
        </linearGradient>
        <linearGradient x1="50%" y1="0%" x2="50%" y2="50%" id="linearGradient-3">
            <stop stop-color="#1FB6C2" offset="0%"></stop>
            <stop stop-color="#0D7F8F" offset="100%"></stop>
        </linearGradient>
        <linearGradient x1="50%" y1="0%" x2="50%" y2="100%" id="linearGradient-4">
            <stop stop-color="#4E5C90" offset="0%"></stop>
            <stop stop-color="#262F57" offset="100%"></stop>
        </linearGradient>
        <linearGradient x1="50%" y1="100%" x2="50%" y2="3.061617e-15%" id="linearGradient-5">
            <stop stop-color="#EFEFEF" offset="0%"></stop>
            <stop stop-color="#FFFFFF" offset="100%"></stop>
        </linearGradient>
        <linearGradient x1="50%" y1="0%" x2="50%" y2="100%" id="linearGradient-6">
            <stop stop-color="#D8D8D8" offset="0%"></stop>
            <stop stop-color="#FFFFFF" offset="100%"></stop>
        </linearGradient>
    </defs>
    <g id="Icons" stroke="none" stroke-width="1" fill="none" fill-rule="evenodd">
        <g id="exif">
            <path d="M53.9462592,0 L0,0 L0,102 L83,102 L83,28.0763718 L53.9462592,28.076373 L53.9462592,-1.11022302e-16 Z" id="Combined-Shape" fill="url(#linearGradient-1)"></path>
            <polygon id="Path-2-Copy" fill="url(#linearGradient-2)" points="56.4957983 0 56.4957983 25.6054138 82.9155003 25.6054127"></polygon>
            <text id="EXIF" font-family="SourceSansPro-Light, Source Sans Pro" font-size="20" font-weight="300" fill="#6B6B6B">
                <tspan x="24" y="88">EXIF</tspan>
            </text>
            <g id="Camera" transform="translate(20.000000, 37.000000)">
                <rect id="Rectangle-8" fill="#000000" x="5.05747126" y="2" width="7.5862069" height="4"></rect>
                <path d="M21.802658,0 L32.8173543,0 C34.765009,0 37.1425738,1.79535615 38.1233275,4 C39.106081,6.209139 37.7007901,8 34.9869525,8 L19.6330598,8 C16.9181343,8 15.515931,6.20464385 16.4966848,4 C17.4794383,1.790861 19.8557839,0 21.802658,0 Z" id="Rectangle-7" fill="url(#linearGradient-3)"></path>
                <rect id="Rectangle-6" fill="url(#linearGradient-4)" x="0" y="4" width="44" height="25" rx="3"></rect>
                <ellipse id="Oval-4" fill="url(#linearGradient-5)" cx="27.3103448" cy="15.5" rx="6.57471264" ry="6.5"></ellipse>
                <ellipse id="Oval-5" fill="url(#linearGradient-6)" cx="8.85057471" cy="9.25" rx="2.27586207" ry="2.25"></ellipse>
            </g>
        </g>
    </g>
</svg>