<?xml version="1.0" encoding="UTF-8" standalone="no"?>
<svg width="83px" height="102px" viewBox="0 0 83 102" version="1.1" xmlns="http://www.w3.org/2000/svg" xmlns:xlink="http://www.w3.org/1999/xlink">
    <!-- Generator: Sketch 39.1 (31720) - http://www.bohemiancoding.com/sketch -->
    <title>jar</title>
    <desc>Created with Sketch.</desc>
    <defs>
        <linearGradient x1="0%" y1="0%" x2="100%" y2="100%" id="linearGradient-1">
            <stop stop-color="#F6F6F6" offset="0%"></stop>
            <stop stop-color="#CECECE" offset="100%"></stop>
        </linearGradient>
        <linearGradient x1="21.3994966%" y1="80.1338005%" x2="50%" y2="50%" id="linearGradient-2">
            <stop stop-color="#EEEEEE" offset="0%"></stop>
            <stop stop-color="#E5E4E4" offset="100%"></stop>
        </linearGradient>
    </defs>
    <g id="Icons" stroke="none" stroke-width="1" fill="none" fill-rule="evenodd">
        <g id="jar">
            <path d="M53.9462592,0 L0,0 L0,102 L83,102 L83,28.0763718 L53.9462592,28.076373 L53.9462592,-1.11022302e-16 Z" id="Combined-Shape" fill="url(#linearGradient-1)"></path>
            <polygon id="Path-2-Copy" fill="url(#linearGradient-2)" points="56.4957983 0 56.4957983 25.6054138 82.9155003 25.6054127"></polygon>
            <text font-family="SourceSansPro-Bold, Source Sans Pro" font-size="20" font-weight="bold" fill="#00144B">
                <tspan x="29" y="88">jar</tspan>
            </text>
            <g id="JavaLogo" transform="translate(27.000000, 29.000000)">
                <path d="M8.05933917,19.3200531 C8.05933913,20.8785993 4.72530533,20.5778899 4.72530519,22.7800131 C4.72530505,24.9821363 23.8072008,21.3308389 23.041613,21.9264377 C22.2760253,22.5220364 6.02831929,28.2534077 1.93000496,24.9546526 C-2.16830937,21.6558974 8.05933921,17.7615068 8.05933917,19.3200531 Z" id="Path-13" fill="#277CBC"></path>
                <path d="M21.6161112,27.5582633 C21.9221963,26.5338146 9.95621882,29.3082851 8.42454105,29.3082851 C6.89286328,29.3082851 7.77236231,28.1114376 7.01914323,27.2618207 C6.26592416,26.4122038 4.79511623,29.4587523 6.70693271,30.5799564 C8.61874919,31.7011606 21.310026,28.582712 21.6161112,27.5582633 Z" id="Path-15" fill="#277CBC"></path>
                <path d="M19.5867527,32.1679423 C19.8053849,31.4134469 11.3797447,33.7705393 10.1642026,33.4568145 C8.94866055,33.1430898 10.5672797,31.5178525 9.16034704,31.9496155 C7.75341435,32.3813786 7.57175632,33.567632 8.93733952,34.3933868 C10.3029227,35.2191416 19.3681204,32.9224378 19.5867527,32.1679423 Z" id="Path-15" fill="#277CBC"></path>
                <path d="M5.66980357,32.9252192 C5.6698035,32.6436698 1.11490331,32.819658 0.0745208929,34.407384 C-0.671403671,35.5457383 4.31218234,37.1681169 9.21722973,37.8417292 C11.1535244,38.1076414 16.8339629,37.9241283 18.8071599,37.4000004 C22.34902,36.4591985 27.9780763,34.3939815 27.6240902,34.007667 C27.270104,33.6213524 18.8699701,36.5010623 13.2727163,36.6832739 C7.6754624,36.8654854 4.36810035,35.4840812 3.69833431,34.9166846 C3.02856827,34.3492881 5.66980364,33.2067686 5.66980357,32.9252192 Z" id="Path-16" fill="#277CBC"></path>
                <path d="M23.1474476,24.305517 C22.4166952,24.3055169 26.67819,18.5897661 28.5155537,21.8412255 C30.3529175,25.0926848 23.5576347,31.7607093 23.1474476,30.935319 C22.7372605,30.1099288 25.7508152,28.5509788 26.7365989,24.9035712 C27.7223826,21.2561636 23.8782,24.305517 23.1474476,24.305517 Z" id="Path-17" fill="#277CBC"></path>
                <path d="M13.0231312,20.6834077 C12.115339,20.8216812 8.34382654,18.1041891 9.10492618,14.8166364 C9.86602582,11.5290836 15.4625817,8.8328361 16.5759934,6.84943319 C17.6894051,4.86603029 16.233782,0.845217278 16.5759934,0.5863246 C16.9182048,0.327431923 18.9199899,5.1502901 17.9619489,7.52551106 C17.0039079,9.90073201 12.3005699,12.8399959 11.407438,14.816636 C10.5143061,16.7932761 13.9309235,20.5451341 13.0231312,20.6834077 Z" id="Path-18" fill="#E21A1A"></path>
                <path d="M23.6295099,6.89943903 C23.6295099,6.89943903 14.7905295,13.6768888 15.26458,15.7587518 C15.7386305,17.8406148 15.6896646,18.5759529 15.6896646,19.6670138 C15.6896647,20.7580746 14.4347705,21.7784842 14.4347705,21.7784842 C14.4347705,21.7784842 16.4167184,21.5364594 17.3100672,19.6670138 C18.203416,17.7975681 16.6389269,15.6263372 18.028048,14.0267143 C19.417169,12.4270914 23.6295099,6.89943903 23.6295099,6.89943903 Z" id="Path-19" fill="#E21A1A"></path>
            </g>
        </g>
    </g>
</svg>