<?xml version="1.0" encoding="UTF-8" standalone="no"?>
<svg width="83px" height="102px" viewBox="0 0 83 102" version="1.1" xmlns="http://www.w3.org/2000/svg" xmlns:xlink="http://www.w3.org/1999/xlink">
    <!-- Generator: Sketch 39.1 (31720) - http://www.bohemiancoding.com/sketch -->
    <title>jpg</title>
    <desc>Created with Sketch.</desc>
    <defs>
        <linearGradient x1="0%" y1="0%" x2="100%" y2="100%" id="linearGradient-1">
            <stop stop-color="#F6F6F6" offset="0%"></stop>
            <stop stop-color="#CECECE" offset="100%"></stop>
        </linearGradient>
        <linearGradient x1="21.3994966%" y1="80.1338005%" x2="50%" y2="50%" id="linearGradient-2">
            <stop stop-color="#EEEEEE" offset="0%"></stop>
            <stop stop-color="#E5E4E4" offset="100%"></stop>
        </linearGradient>
        <linearGradient x1="50%" y1="100%" x2="50%" y2="3.061617e-15%" id="linearGradient-3">
            <stop stop-color="#B6E2EF" offset="0%"></stop>
            <stop stop-color="#7FC1DB" offset="100%"></stop>
        </linearGradient>
        <linearGradient x1="50%" y1="100%" x2="50%" y2="3.061617e-15%" id="linearGradient-4">
            <stop stop-color="#E9DFA3" offset="0%"></stop>
            <stop stop-color="#CDBB6A" offset="100%"></stop>
        </linearGradient>
        <radialGradient cx="53.5335481%" cy="59.4016961%" fx="53.5335481%" fy="59.4016961%" r="80.3268761%" id="radialGradient-5">
            <stop stop-color="#FAF7F7" offset="0%"></stop>
            <stop stop-color="#F2ECEC" offset="100%"></stop>
        </radialGradient>
    </defs>
    <g id="Icons" stroke="none" stroke-width="1" fill="none" fill-rule="evenodd">
        <g id="jpg">
            <path d="M53.9462592,0 L0,0 L0,102 L83,102 L83,28.0763718 L53.9462592,28.076373 L53.9462592,-1.11022302e-16 Z" id="Combined-Shape" fill="url(#linearGradient-1)"></path>
            <polygon id="Path-2-Copy" fill="url(#linearGradient-2)" points="56.4957983 0 56.4957983 25.6054138 82.9155003 25.6054127"></polygon>
            <text id="JPG" font-family="SourceSansPro-Light, Source Sans Pro" font-size="20" font-weight="300" fill="#6B6B6B">
                <tspan x="24" y="94">JPG</tspan>
            </text>
            <g id="Group-2" transform="translate(7.000000, 31.000000)">
                <rect id="Rectangle-2" fill="url(#linearGradient-3)" x="1" y="0" width="66" height="27"></rect>
                <path d="M15.5037351,20.7846022 C14.0604269,20.4135966 12.3668442,20.2 10.5555556,20.2 C5.27816795,20.2 0.895753147,24.7864632 0.895753147,27.0232164 C0.895753147,29.2599697 5.27816795,28.3 10.5555556,28.3 C11.7578114,28.3 12.9082091,28.205895 13.9679811,28.0341161 C15.5429585,29.7936739 18.772192,31 22.5,31 C26.227808,31 29.4570415,29.7936739 31.0320189,28.0341161 C32.0917909,28.205895 33.2421886,28.3 34.4444444,28.3 C39.7218321,28.3 44,26.4867532 44,24.25 C44,22.0132468 39.7218321,20.2 34.4444444,20.2 C34.2637387,20.2 34.0842044,20.202126 33.9059734,20.2063222 C32.5984191,18.6300109 29.0550096,17.5 24.8888889,17.5 C20.2288854,17.5 16.347986,18.9138112 15.5037351,20.7846022 Z" id="Combined-Shape-Copy-3" fill="#56C34C"></path>
                <path d="M38.5037351,20.7846022 C37.0604269,20.4135966 35.3668442,20.2 33.5555556,20.2 C28.2781679,20.2 24,22.0132468 24,24.25 C24,26.4867532 28.2781679,28.3 33.5555556,28.3 C34.7578114,28.3 35.9082091,28.205895 36.9679811,28.0341161 C38.5429585,29.7936739 41.772192,31 45.5,31 C49.227808,31 52.4570415,29.7936739 54.0320189,28.0341161 C55.0917909,28.205895 56.2421886,28.3 57.4444444,28.3 C62.7218321,28.3 66.8977504,29.1712613 66.8977504,26.934508 C66.8977504,24.6977548 62.7218321,20.2 57.4444444,20.2 C57.2637387,20.2 57.0842044,20.202126 56.9059734,20.2063222 C55.5984191,18.6300109 52.0550096,17.5 47.8888889,17.5 C43.2288854,17.5 39.347986,18.9138112 38.5037351,20.7846022 Z" id="Combined-Shape-Copy-4" fill="#9BCF70"></path>
                <rect id="Rectangle-2" fill="url(#linearGradient-4)" x="1" y="27" width="66" height="18"></rect>
                <path d="M12.071331,3.21651932 C11.4671554,3.07910983 10.7582138,3 10,3 C7.790861,3 6,3.67157288 6,4.5 C6,5.32842712 7.790861,6 10,6 C10.5032699,6 10.9848317,5.9651463 11.4284572,5.90152449 C12.0877501,6.55321255 13.4395222,7 15,7 C16.5604778,7 17.9122499,6.55321255 18.5715428,5.90152449 C19.0151683,5.9651463 19.4967301,6 20,6 C22.209139,6 24,5.32842712 24,4.5 C24,3.67157288 22.209139,3 20,3 C19.9243557,3 19.8492019,3.00078741 19.7745935,3.00234156 C19.2272452,2.41852255 17.7439575,2 16,2 C14.0493009,2 12.4247383,2.52363377 12.071331,3.21651932 Z" id="Combined-Shape" fill="url(#radialGradient-5)"></path>
                <path d="M31.071331,6.21651932 C30.4671554,6.07910983 29.7582138,6 29,6 C26.790861,6 25,6.67157288 25,7.5 C25,8.32842712 26.790861,9 29,9 C29.5032699,9 29.9848317,8.9651463 30.4284572,8.90152449 C31.0877501,9.55321255 32.4395222,10 34,10 C35.5604778,10 36.9122499,9.55321255 37.5715428,8.90152449 C38.0151683,8.9651463 38.4967301,9 39,9 C41.209139,9 43,8.32842712 43,7.5 C43,6.67157288 41.209139,6 39,6 C38.9243557,6 38.8492019,6.00078741 38.7745935,6.00234156 C38.2272452,5.41852255 36.7439575,5 35,5 C33.0493009,5 31.4247383,5.52363377 31.071331,6.21651932 Z" id="Combined-Shape-Copy" fill="url(#radialGradient-5)"></path>
                <path d="M50.071331,2.21651932 C49.4671554,2.07910983 48.7582138,2 48,2 C45.790861,2 44,2.67157288 44,3.5 C44,4.32842712 45.790861,5 48,5 C48.5032699,5 48.9848317,4.9651463 49.4284572,4.90152449 C50.0877501,5.55321255 51.4395222,6 53,6 C54.5604778,6 55.9122499,5.55321255 56.5715428,4.90152449 C57.0151683,4.9651463 57.4967301,5 58,5 C60.209139,5 62,4.32842712 62,3.5 C62,2.67157288 60.209139,2 58,2 C57.9243557,2 57.8492019,2.00078741 57.7745935,2.00234156 C57.2272452,1.41852255 55.7439575,1 54,1 C52.0493009,1 50.4247383,1.52363377 50.071331,2.21651932 Z" id="Combined-Shape-Copy-2" fill="url(#radialGradient-5)"></path>
            </g>
        </g>
    </g>
</svg>