<?xml version="1.0" encoding="UTF-8" standalone="no"?>
<svg width="83px" height="102px" viewBox="0 0 83 102" version="1.1" xmlns="http://www.w3.org/2000/svg" xmlns:xlink="http://www.w3.org/1999/xlink">
    <!-- Generator: Sketch 39.1 (31720) - http://www.bohemiancoding.com/sketch -->
    <title>mkv</title>
    <desc>Created with Sketch.</desc>
    <defs>
        <linearGradient x1="0%" y1="0%" x2="100%" y2="100%" id="linearGradient-1">
            <stop stop-color="#F6F6F6" offset="0%"></stop>
            <stop stop-color="#CECECE" offset="100%"></stop>
        </linearGradient>
        <linearGradient x1="21.3994966%" y1="80.1338005%" x2="50%" y2="50%" id="linearGradient-2">
            <stop stop-color="#EEEEEE" offset="0%"></stop>
            <stop stop-color="#E5E4E4" offset="100%"></stop>
        </linearGradient>
    </defs>
    <g id="Icons" stroke="none" stroke-width="1" fill="none" fill-rule="evenodd">
        <g id="mkv">
            <path d="M53.9462592,0 L0,0 L0,102 L83,102 L83,28.0763718 L53.9462592,28.076373 L53.9462592,-1.11022302e-16 Z" id="Combined-Shape" fill="url(#linearGradient-1)"></path>
            <polygon id="Path-2-Copy" fill="url(#linearGradient-2)" points="56.4957983 0 56.4957983 25.6054138 82.9155003 25.6054127"></polygon>
            <text id="MKV" font-family="SourceSansPro-Light, Source Sans Pro" font-size="20" font-weight="300" fill="#6B6B6B">
                <tspan x="24" y="91">MKV</tspan>
            </text>
            <g id="FilmReel" transform="translate(29.000000, 37.000000)">
                <rect id="Rectangle-15" fill="#C27416" x="0" y="0" width="25" height="29" rx="3"></rect>
                <rect id="Rectangle-14" fill="#FFFFFF" x="4.03225806" y="2.41666667" width="16.9354839" height="10.875"></rect>
                <rect id="Rectangle-14-Copy" fill="#FFFFFF" x="4.03225806" y="15.7083333" width="16.9354839" height="10.875"></rect>
                <rect id="Rectangle-16" fill="#FFFFFF" x="1.20967742" y="1.61111111" width="1.61290323" height="3.22222222" rx="0.806451613"></rect>
                <rect id="Rectangle-16-Copy-5" fill="#FFFFFF" x="22.1774194" y="1.61111111" width="1.61290323" height="3.22222222" rx="0.806451613"></rect>
                <rect id="Rectangle-16-Copy" fill="#FFFFFF" x="1.20967742" y="7.25" width="1.61290323" height="3.22222222" rx="0.806451613"></rect>
                <rect id="Rectangle-16-Copy-6" fill="#FFFFFF" x="22.1774194" y="7.25" width="1.61290323" height="3.22222222" rx="0.806451613"></rect>
                <rect id="Rectangle-16-Copy-2" fill="#FFFFFF" x="1.20967742" y="12.8888889" width="1.61290323" height="3.22222222" rx="0.806451613"></rect>
                <rect id="Rectangle-16-Copy-7" fill="#FFFFFF" x="22.1774194" y="12.8888889" width="1.61290323" height="3.22222222" rx="0.806451613"></rect>
                <rect id="Rectangle-16-Copy-3" fill="#FFFFFF" x="1.20967742" y="18.5277778" width="1.61290323" height="3.22222222" rx="0.806451613"></rect>
                <rect id="Rectangle-16-Copy-8" fill="#FFFFFF" x="22.1774194" y="18.5277778" width="1.61290323" height="3.22222222" rx="0.806451613"></rect>
                <rect id="Rectangle-16-Copy-4" fill="#FFFFFF" x="1.20967742" y="24.1666667" width="1.61290323" height="3.22222222" rx="0.806451613"></rect>
                <rect id="Rectangle-16-Copy-9" fill="#FFFFFF" x="22.1774194" y="24.1666667" width="1.61290323" height="3.22222222" rx="0.806451613"></rect>
            </g>
        </g>
    </g>
</svg>