<?xml version="1.0" encoding="UTF-8" standalone="no"?>
<svg width="83px" height="102px" viewBox="0 0 83 102" version="1.1" xmlns="http://www.w3.org/2000/svg" xmlns:xlink="http://www.w3.org/1999/xlink">
    <!-- Generator: Sketch 39.1 (31720) - http://www.bohemiancoding.com/sketch -->
    <title>mp3</title>
    <desc>Created with Sketch.</desc>
    <defs>
        <linearGradient x1="0%" y1="0%" x2="100%" y2="100%" id="linearGradient-1">
            <stop stop-color="#F6F6F6" offset="0%"></stop>
            <stop stop-color="#CECECE" offset="100%"></stop>
        </linearGradient>
        <linearGradient x1="21.3994966%" y1="80.1338005%" x2="50%" y2="50%" id="linearGradient-2">
            <stop stop-color="#EEEEEE" offset="0%"></stop>
            <stop stop-color="#E5E4E4" offset="100%"></stop>
        </linearGradient>
    </defs>
    <g id="Icons" stroke="none" stroke-width="1" fill="none" fill-rule="evenodd">
        <g id="mp3">
            <path d="M53.9462592,0 L0,0 L0,102 L83,102 L83,28.0763718 L53.9462592,28.076373 L53.9462592,-1.11022302e-16 Z" id="Combined-Shape" fill="url(#linearGradient-1)"></path>
            <polygon id="Path-2-Copy" fill="url(#linearGradient-2)" points="56.4957983 0 56.4957983 25.6054138 82.9155003 25.6054127"></polygon>
            <text id="MP3" font-family="SourceSansPro-Light, Source Sans Pro" font-size="20" font-weight="300" fill="#6B6B6B">
                <tspan x="23" y="88">MP3</tspan>
            </text>
            <g id="MusicalNoteSingle" transform="translate(28.000000, 29.000000)" fill="#5795F2">
                <path d="M7.99514563,27.3515893 C3.57954863,27.9613917 0,30.4002075 0,32.7988369 C0,35.1974663 3.57954863,36.6475971 7.99514563,36.0377947 C12.4107426,35.4279923 15.9902913,32.9891765 15.9902913,30.5905471 C15.9902913,28.1919177 12.4107426,26.7417869 7.99514563,27.3515893 Z" id="Oval-12"></path>
                <rect id="Rectangle-17" x="14.368932" y="0" width="1.63106796" height="30.7021277"></rect>
                <path d="M15.7281553,0 L15.7281553,7.61471779 C15.7281553,7.61471779 20.4112768,11.0779591 21.1446422,15.0974712 C21.8780076,19.1169834 21.1282535,21.5562585 21.1282535,21.5562585 L22.6575198,21.2206217 C22.6575198,21.2206217 24.4373419,12.4775314 18.7753544,7.23950481 C16.6039881,5.2307272 15.7281553,0 15.7281553,0 Z" id="Path-6"></path>
            </g>
        </g>
    </g>
</svg>