<?xml version="1.0" encoding="UTF-8" standalone="no"?>
<svg width="83px" height="102px" viewBox="0 0 83 102" version="1.1" xmlns="http://www.w3.org/2000/svg" xmlns:xlink="http://www.w3.org/1999/xlink">
    <!-- Generator: Sketch 39.1 (31720) - http://www.bohemiancoding.com/sketch -->
    <title>mp4</title>
    <desc>Created with Sketch.</desc>
    <defs>
        <linearGradient x1="0%" y1="0%" x2="100%" y2="100%" id="linearGradient-1">
            <stop stop-color="#F6F6F6" offset="0%"></stop>
            <stop stop-color="#CECECE" offset="100%"></stop>
        </linearGradient>
        <linearGradient x1="21.3994966%" y1="80.1338005%" x2="50%" y2="50%" id="linearGradient-2">
            <stop stop-color="#EEEEEE" offset="0%"></stop>
            <stop stop-color="#E5E4E4" offset="100%"></stop>
        </linearGradient>
        <linearGradient x1="9.22803192%" y1="17.8674751%" x2="92.4164971%" y2="100%" id="linearGradient-3">
            <stop stop-color="#6B6A81" offset="0%"></stop>
            <stop stop-color="#39384A" offset="100%"></stop>
        </linearGradient>
        <linearGradient x1="50%" y1="0%" x2="50%" y2="100%" id="linearGradient-4">
            <stop stop-color="#D9B079" offset="0%"></stop>
            <stop stop-color="#B07844" offset="100%"></stop>
        </linearGradient>
        <linearGradient x1="50%" y1="100%" x2="50%" y2="3.061617e-15%" id="linearGradient-5">
            <stop stop-color="#D6AA73" offset="0%"></stop>
            <stop stop-color="#AC723F" offset="100%"></stop>
        </linearGradient>
    </defs>
    <g id="Icons" stroke="none" stroke-width="1" fill="none" fill-rule="evenodd">
        <g id="mp4">
            <path d="M53.9462592,0 L0,0 L0,102 L83,102 L83,28.0763718 L53.9462592,28.076373 L53.9462592,-1.11022302e-16 Z" id="Combined-Shape" fill="url(#linearGradient-1)"></path>
            <polygon id="Path-2-Copy" fill="url(#linearGradient-2)" points="56.4957983 0 56.4957983 25.6054138 82.9155003 25.6054127"></polygon>
            <text id="MP4" font-family="SourceSansPro-Light, Source Sans Pro" font-size="20" font-weight="300" fill="#6B6B6B">
                <tspan x="24" y="91">MP4</tspan>
            </text>
            <g id="Clapper" transform="translate(23.000000, 32.000000)">
                <rect id="Rectangle-10" fill="url(#linearGradient-3)" x="2.55298568" y="16.3733244" width="35.1571463" height="21.6266756"></rect>
                <g id="Group-5" transform="translate(18.265774, 9.021235) rotate(-17.000000) translate(-18.265774, -9.021235) translate(0.265774, 5.521235)">
                    <rect id="Rectangle-10-Copy" fill="url(#linearGradient-4)" x="0.838002933" y="1.4610535e-13" width="35.1571463" height="6.05546917"></rect>
                    <path d="M5.06010182,-4.39648318e-14 L9.24731653,-4.39648318e-14 L5.00723137,6.05546917 L0.820016659,6.05546917 L5.06010182,-4.37427872e-14 Z" id="Combined-Shape" fill="#747373"></path>
                    <path d="M14.0637612,-3.22408766e-13 L18.250976,-3.22408766e-13 L14.0108908,6.05546917 L9.82367608,6.05546917 L14.0637612,-3.22075699e-13 Z" id="Combined-Shape-Copy-5" fill="#747373"></path>
                    <path d="M22.638675,8.79296636e-14 L26.8258897,8.79296636e-14 L22.5858045,6.05546917 L18.3985898,6.05546917 L22.638675,8.80406859e-14 Z" id="Combined-Shape-Copy-6" fill="#747373"></path>
                    <path d="M31.2135887,-3.58824082e-13 L35.4008034,-3.58824082e-13 L31.1607183,6.05546917 L26.9735035,6.05546917 L31.2135887,-3.59268171e-13 Z" id="Combined-Shape-Copy-7" fill="#747373"></path>
                </g>
                <g id="Group-5-Copy" transform="translate(19.714983, 18.928794) scale(1, -1) translate(-19.714983, -18.928794) translate(1.714983, 15.428794)">
                    <rect id="Rectangle-10-Copy" fill="url(#linearGradient-5)" x="0.838002933" y="-7.86037901e-14" width="35.1571463" height="6.05546917"></rect>
                    <path d="M5.06010182,4.75175455e-14 L9.24731653,4.75175455e-14 L5.00723137,6.05546917 L0.820016659,6.05546917 L5.06010182,4.69624339e-14 Z" id="Combined-Shape" fill="#747373"></path>
                    <path d="M14.0637612,4.4408921e-16 L18.250976,4.4408921e-16 L14.0108908,6.05546917 L9.82367608,6.05546917 L14.0637612,-1.77635684e-15 Z" id="Combined-Shape-Copy-5" fill="#747373"></path>
                    <path d="M22.638675,0 L26.8258897,0 L22.5858045,6.05546917 L18.3985898,6.05546917 L22.638675,-1.11022302e-15 Z" id="Combined-Shape-Copy-6" fill="#747373"></path>
                    <path d="M31.2135887,-8.8817842e-16 L35.4008034,-8.8817842e-16 L31.1607183,6.05546917 L26.9735035,6.05546917 L31.2135887,-8.8817842e-16 Z" id="Combined-Shape-Copy-7" fill="#747373"></path>
                </g>
            </g>
        </g>
    </g>
</svg>