<?xml version="1.0" encoding="UTF-8" standalone="no"?>
<svg width="83px" height="102px" viewBox="0 0 83 102" version="1.1" xmlns="http://www.w3.org/2000/svg" xmlns:xlink="http://www.w3.org/1999/xlink">
    <!-- Generator: Sketch 39.1 (31720) - http://www.bohemiancoding.com/sketch -->
    <title>numbers</title>
    <desc>Created with Sketch.</desc>
    <defs>
        <linearGradient x1="0%" y1="0%" x2="100%" y2="100%" id="linearGradient-1">
            <stop stop-color="#F6F6F6" offset="0%"></stop>
            <stop stop-color="#CECECE" offset="100%"></stop>
        </linearGradient>
        <linearGradient x1="21.3994966%" y1="80.1338005%" x2="50%" y2="50%" id="linearGradient-2">
            <stop stop-color="#EEEEEE" offset="0%"></stop>
            <stop stop-color="#E5E4E4" offset="100%"></stop>
        </linearGradient>
        <linearGradient x1="50%" y1="100%" x2="50%" y2="3.061617e-15%" id="linearGradient-3">
            <stop stop-color="#14D61E" offset="0%"></stop>
            <stop stop-color="#76F665" offset="100%"></stop>
        </linearGradient>
    </defs>
    <g id="Icons" stroke="none" stroke-width="1" fill="none" fill-rule="evenodd">
        <g id="numbers">
            <path d="M53.9462592,0 L0,0 L0,102 L83,102 L83,28.0763718 L53.9462592,28.076373 L53.9462592,-1.11022302e-16 Z" id="Combined-Shape" fill="url(#linearGradient-1)"></path>
            <polygon id="Path-2-Copy" fill="url(#linearGradient-2)" points="56.4957983 0 56.4957983 25.6054138 82.9155003 25.6054127"></polygon>
            <text id="NUMBERS" font-family="SourceSansPro-Light, Source Sans Pro" font-size="17" font-weight="300" fill="#6B6B6B">
                <tspan x="6" y="90">NUMBERS</tspan>
            </text>
            <g id="NumbersLogo" transform="translate(22.000000, 32.000000)">
                <rect id="Rectangle-36" fill="url(#linearGradient-3)" x="0" y="0" width="38" height="38" rx="3"></rect>
                <rect id="Rectangle-37" fill="#FFFFFF" x="5" y="28" width="29" height="1" rx="0.5"></rect>
                <rect id="Rectangle-38" fill="#FFFFFF" x="6" y="23" width="6" height="4"></rect>
                <rect id="Rectangle-38-Copy" fill="#FFFFFF" x="13" y="18" width="6" height="9.05061839"></rect>
                <rect id="Rectangle-38-Copy-2" fill="#FFFFFF" x="20" y="9" width="6" height="18.1012368"></rect>
                <rect id="Rectangle-38-Copy-3" fill="#FFFFFF" x="27" y="14" width="6" height="13.1645358"></rect>
            </g>
        </g>
    </g>
</svg>