<?xml version="1.0" encoding="UTF-8" standalone="no"?>
<svg width="83px" height="102px" viewBox="0 0 83 102" version="1.1" xmlns="http://www.w3.org/2000/svg" xmlns:xlink="http://www.w3.org/1999/xlink">
    <!-- Generator: Sketch 39.1 (31720) - http://www.bohemiancoding.com/sketch -->
    <title>ods</title>
    <desc>Created with Sketch.</desc>
    <defs>
        <linearGradient x1="0%" y1="0%" x2="100%" y2="100%" id="linearGradient-1">
            <stop stop-color="#F6F6F6" offset="0%"></stop>
            <stop stop-color="#CECECE" offset="100%"></stop>
        </linearGradient>
        <linearGradient x1="21.3994966%" y1="80.1338005%" x2="50%" y2="50%" id="linearGradient-2">
            <stop stop-color="#EEEEEE" offset="0%"></stop>
            <stop stop-color="#E5E4E4" offset="100%"></stop>
        </linearGradient>
        <linearGradient x1="50%" y1="0%" x2="50%" y2="100%" id="linearGradient-3">
            <stop stop-color="#B0CEA0" offset="0%"></stop>
            <stop stop-color="#32A338" offset="44.0210459%"></stop>
            <stop stop-color="#3AA329" offset="83.6037149%"></stop>
            <stop stop-color="#B8F1A5" offset="100%"></stop>
        </linearGradient>
        <linearGradient x1="50%" y1="0%" x2="50%" y2="100%" id="linearGradient-4">
            <stop stop-color="#3A658B" offset="0%"></stop>
            <stop stop-color="#294359" offset="58.081261%"></stop>
            <stop stop-color="#436986" offset="100%"></stop>
        </linearGradient>
        <linearGradient x1="50%" y1="36.1451814%" x2="56.6998066%" y2="100%" id="linearGradient-5">
            <stop stop-color="#FAFAFA" offset="0%"></stop>
            <stop stop-color="#ACAAAA" offset="100%"></stop>
        </linearGradient>
    </defs>
    <g id="Icons" stroke="none" stroke-width="1" fill="none" fill-rule="evenodd">
        <g id="ods">
            <path d="M53.9462592,0 L0,0 L0,102 L83,102 L83,28.0763718 L53.9462592,28.076373 L53.9462592,-1.11022302e-16 Z" id="Combined-Shape" fill="url(#linearGradient-1)"></path>
            <polygon id="Path-2-Copy" fill="url(#linearGradient-2)" points="56.4957983 0 56.4957983 25.6054138 82.9155003 25.6054127"></polygon>
            <text id="ODS" font-family="SourceSansPro-Light, Source Sans Pro" font-size="20" font-weight="300" fill="#6B6B6B">
                <tspan x="24" y="90">ODS</tspan>
            </text>
            <g id="OdpLogo" transform="translate(23.000000, 34.000000)">
                <path d="M34.0565675,4.26325641e-14 L6.65525027,4.26325641e-14 C5.00223601,4.26325641e-14 3.66037736,1.34420165 3.66037736,3.00235843 L3.66037736,30.9976416 C3.66037736,32.6566876 5.00122763,34 6.65525027,34 L34.8503571,34 C36.2342012,30.3960436 38.7681184,21.9214901 34.9497437,15.7243269 C31.2882702,9.78181205 32.9332457,3.10851799 34.0565675,-1.73305814e-13 Z" id="Combined-Shape" fill="url(#linearGradient-3)"></path>
                <path d="M9.4745114,0.156058656 C9.1739336,0.0548453285 8.85206184,1.84741111e-13 8.51738602,1.84741111e-13 L5.9061494,1.84741111e-13 C4.25232595,1.84741111e-13 2.90712515,1.34420165 2.90712515,3.00235843 L2.90712515,30.9976416 C2.90712515,32.6566876 4.24983404,34 5.9061494,34 L8.51738602,34 C8.88241048,34 9.23240029,33.9345168 9.55620992,33.8146278 C9.93040191,30.8395924 10.8522091,22.0785666 9.66058182,15.7837262 C8.50268338,9.66706027 9.15765932,2.73778867 9.4745114,0.156058656 Z" id="Combined-Shape" fill="url(#linearGradient-4)"></path>
                <path d="M2,5.35401191 C2,5.35401191 6.57566491,4.35648262 11.2641234,6.68697499 C13.600049,3.06510347 19.433369,2 19.433369,2 C19.433369,2 14.3785813,4.18917185 11.8473235,8.86169004 C7.75998767,5.97517362 2,5.35401191 2,5.35401191 Z" id="Path-10" fill="url(#linearGradient-5)"></path>
                <rect id="Rectangle-40" fill="#EEEEEE" x="15.1416578" y="19.80616" width="15.7166845" height="10.3876801"></rect>
                <path d="M0,9.56583501 C0,9.56583501 6.22887802,8.20789286 12.6113026,11.3804051 C15.791211,6.44993126 23.7321418,5 23.7321418,5 C23.7321418,5 16.8510313,7.98013179 13.4052161,14.3408567 C7.84110316,10.4114259 0,9.56583501 0,9.56583501 Z" id="Path-10-Copy" fill="url(#linearGradient-5)"></path>
                <g id="Grid" transform="translate(16.000000, 21.000000)" fill="#60B359">
                    <rect id="Rectangle-41" x="0" y="0" width="4" height="2"></rect>
                    <rect id="Rectangle-41-Copy-3" x="0" y="3" width="4" height="2"></rect>
                    <rect id="Rectangle-41-Copy" x="5" y="0" width="4" height="2"></rect>
                    <rect id="Rectangle-41-Copy-4" x="5" y="3" width="4" height="2"></rect>
                    <rect id="Rectangle-41-Copy-2" x="10" y="0" width="4" height="2"></rect>
                    <rect id="Rectangle-41-Copy-5" x="10" y="3" width="4" height="2"></rect>
                    <rect id="Rectangle-41-Copy-8" x="0" y="6" width="4" height="2"></rect>
                    <rect id="Rectangle-41-Copy-7" x="5" y="6" width="4" height="2"></rect>
                    <rect id="Rectangle-41-Copy-6" x="10" y="6" width="4" height="2"></rect>
                </g>
            </g>
        </g>
    </g>
</svg>