<?xml version="1.0" encoding="UTF-8" standalone="no"?>
<svg width="83px" height="102px" viewBox="0 0 83 102" version="1.1" xmlns="http://www.w3.org/2000/svg" xmlns:xlink="http://www.w3.org/1999/xlink">
    <!-- Generator: Sketch 39.1 (31720) - http://www.bohemiancoding.com/sketch -->
    <title>ogg</title>
    <desc>Created with Sketch.</desc>
    <defs>
        <linearGradient x1="0%" y1="0%" x2="100%" y2="100%" id="linearGradient-1">
            <stop stop-color="#F6F6F6" offset="0%"></stop>
            <stop stop-color="#CECECE" offset="100%"></stop>
        </linearGradient>
        <linearGradient x1="21.3994966%" y1="80.1338005%" x2="50%" y2="50%" id="linearGradient-2">
            <stop stop-color="#EEEEEE" offset="0%"></stop>
            <stop stop-color="#E5E4E4" offset="100%"></stop>
        </linearGradient>
    </defs>
    <g id="Icons" stroke="none" stroke-width="1" fill="none" fill-rule="evenodd">
        <g id="ogg">
            <path d="M53.9462592,0 L0,0 L0,102 L83,102 L83,28.0763718 L53.9462592,28.076373 L53.9462592,-1.11022302e-16 Z" id="Combined-Shape" fill="url(#linearGradient-1)"></path>
            <polygon id="Path-2-Copy" fill="url(#linearGradient-2)" points="56.4957983 0 56.4957983 25.6054138 82.9155003 25.6054127"></polygon>
            <text id="OGG" font-family="SourceSansPro-Light, Source Sans Pro" font-size="20" font-weight="300" fill="#6B6B6B">
                <tspan x="23" y="88">OGG</tspan>
            </text>
            <g id="Soundwave" transform="translate(14.000000, 33.000000)" fill="#868686">
                <rect id="Rectangle-23" x="0" y="9.49450549" width="12.6618705" height="3.16483516" rx="1.58241758"></rect>
                <rect id="Rectangle-23-Copy" x="0" y="14.2417582" width="12.6618705" height="3.16483516" rx="1.58241758"></rect>
                <rect id="Rectangle-23-Copy-2" x="0" y="18.989011" width="12.6618705" height="3.16483516" rx="1.58241758"></rect>
                <rect id="Rectangle-23-Copy-14" x="28.4892086" y="18.989011" width="12.6618705" height="3.16483516" rx="1.58241758"></rect>
                <rect id="Rectangle-23-Copy-3" x="0" y="23.7362637" width="12.6618705" height="3.16483516" rx="1.58241758"></rect>
                <rect id="Rectangle-23-Copy-15" x="28.4892086" y="23.7362637" width="12.6618705" height="3.16483516" rx="1.58241758"></rect>
                <rect id="Rectangle-23-Copy-4" x="0" y="28.4835165" width="12.6618705" height="3.16483516" rx="1.58241758"></rect>
                <rect id="Rectangle-23-Copy-21" x="0" y="32.8351648" width="12.6618705" height="3.16483516" rx="1.58241758"></rect>
                <rect id="Rectangle-23-Copy-16" x="28.4892086" y="28.4835165" width="12.6618705" height="3.16483516" rx="1.58241758"></rect>
                <rect id="Rectangle-23-Copy-22" x="28.4892086" y="32.8351648" width="12.6618705" height="3.16483516" rx="1.58241758"></rect>
                <rect id="Rectangle-23-Copy-5" x="14.2446043" y="28.4835165" width="12.6618705" height="3.16483516" rx="1.58241758"></rect>
                <rect id="Rectangle-23-Copy-23" x="14.2446043" y="32.8351648" width="12.6618705" height="3.16483516" rx="1.58241758"></rect>
                <rect id="Rectangle-23-Copy-12" x="42.3381295" y="28.4835165" width="12.6618705" height="3.16483516" rx="1.58241758"></rect>
                <rect id="Rectangle-23-Copy-24" x="42.3381295" y="32.8351648" width="12.6618705" height="3.16483516" rx="1.58241758"></rect>
                <rect id="Rectangle-23-Copy-6" x="14.2446043" y="23.7362637" width="12.6618705" height="3.16483516" rx="1.58241758"></rect>
                <rect id="Rectangle-23-Copy-13" x="42.3381295" y="23.7362637" width="12.6618705" height="3.16483516" rx="1.58241758"></rect>
                <rect id="Rectangle-23-Copy-7" x="14.2446043" y="18.989011" width="12.6618705" height="3.16483516" rx="1.58241758"></rect>
                <rect id="Rectangle-23-Copy-17" x="42.3381295" y="18.989011" width="12.6618705" height="3.16483516" rx="1.58241758"></rect>
                <rect id="Rectangle-23-Copy-8" x="14.2446043" y="14.2417582" width="12.6618705" height="3.16483516" rx="1.58241758"></rect>
                <rect id="Rectangle-23-Copy-18" x="42.3381295" y="14.2417582" width="12.6618705" height="3.16483516" rx="1.58241758"></rect>
                <rect id="Rectangle-23-Copy-9" x="14.2446043" y="9.49450549" width="12.6618705" height="3.16483516" rx="1.58241758"></rect>
                <rect id="Rectangle-23-Copy-19" x="42.3381295" y="9.49450549" width="12.6618705" height="3.16483516" rx="1.58241758"></rect>
                <rect id="Rectangle-23-Copy-10" x="14.2446043" y="4.74725275" width="12.6618705" height="3.16483516" rx="1.58241758"></rect>
                <rect id="Rectangle-23-Copy-20" x="42.3381295" y="4.74725275" width="12.6618705" height="3.16483516" rx="1.58241758"></rect>
                <rect id="Rectangle-23-Copy-11" x="14.2446043" y="0" width="12.6618705" height="3.16483516" rx="1.58241758"></rect>
            </g>
        </g>
    </g>
</svg>