<?xml version="1.0" encoding="UTF-8" standalone="no"?>
<svg width="83px" height="102px" viewBox="0 0 83 102" version="1.1" xmlns="http://www.w3.org/2000/svg" xmlns:xlink="http://www.w3.org/1999/xlink">
    <!-- Generator: Sketch 39.1 (31720) - http://www.bohemiancoding.com/sketch -->
    <title>pages</title>
    <desc>Created with Sketch.</desc>
    <defs>
        <linearGradient x1="0%" y1="0%" x2="100%" y2="100%" id="linearGradient-1">
            <stop stop-color="#F6F6F6" offset="0%"></stop>
            <stop stop-color="#CECECE" offset="100%"></stop>
        </linearGradient>
        <linearGradient x1="21.3994966%" y1="80.1338005%" x2="50%" y2="50%" id="linearGradient-2">
            <stop stop-color="#EEEEEE" offset="0%"></stop>
            <stop stop-color="#E5E4E4" offset="100%"></stop>
        </linearGradient>
        <radialGradient cx="50%" cy="50%" fx="50%" fy="50%" r="48.4228604%" id="radialGradient-3">
            <stop stop-color="#A4A4A4" offset="0%"></stop>
            <stop stop-color="#FFFFFF" offset="94.0349968%"></stop>
            <stop stop-color="#DCDCDC" offset="100%"></stop>
        </radialGradient>
        <radialGradient cx="50%" cy="50%" fx="50%" fy="50%" r="100%" id="radialGradient-4">
            <stop stop-color="#FAC135" offset="0%"></stop>
            <stop stop-color="#F99931" offset="100%"></stop>
        </radialGradient>
    </defs>
    <g id="Icons" stroke="none" stroke-width="1" fill="none" fill-rule="evenodd">
        <g id="pages">
            <path d="M53.9462592,0 L0,0 L0,102 L83,102 L83,28.0763718 L53.9462592,28.076373 L53.9462592,-1.11022302e-16 Z" id="Combined-Shape" fill="url(#linearGradient-1)"></path>
            <polygon id="Path-2-Copy" fill="url(#linearGradient-2)" points="56.4957983 0 56.4957983 25.6054138 82.9155003 25.6054127"></polygon>
            <text id="PAGES" font-family="SourceSansPro-Light, Source Sans Pro" font-size="18" font-weight="300" fill="#6B6B6B">
                <tspan x="17" y="89">PAGES</tspan>
            </text>
            <g id="PagesLogo" transform="translate(20.000000, 30.000000)">
                <ellipse id="Oval-17" fill="url(#radialGradient-3)" cx="21.5" cy="21.5" rx="21.5" ry="21.0784314"></ellipse>
                <ellipse id="Oval-17" fill="url(#radialGradient-4)" cx="21.6747967" cy="21.6713694" rx="17.8292683" ry="17.4796748"></ellipse>
                <path d="M36.8033431,30.9253148 C36.9406457,30.7100212 37.0732997,30.4915859 37.2011674,30.2701439 C37.157119,30.2506582 37.1081912,30.2398374 37.0566613,30.2398374 L13.9839891,30.2398374 C13.7922367,30.2398374 13.6341463,30.3932868 13.6341463,30.5825761 C13.6341463,30.7731852 13.7907763,30.9253148 13.9839891,30.9253148 L36.8033431,30.9253148 L36.8033431,30.9253148 Z" id="Line" fill="#FFFFFF"></path>
                <g id="Pen" transform="translate(13.983740, 13.102901)" fill="#FFFFFF">
                    <path d="M10.8637778,8.77133258 C7.40791869,11.7854403 4.0716591,14.707731 4.0716591,14.707731 C4.0716591,14.707731 2.92932998,15.3941554 1.8550133,15.9795716 L1.06672119,15.0401217 C1.85302191,13.9679857 2.78633369,12.7993609 2.78633369,12.7993609 C2.78633369,12.7993609 6.00268823,9.9553239 9.36255743,6.98224784 L10.8637778,8.77133258 Z M11.1109945,8.55573836 C14.3555663,5.72648149 17.6379098,2.87579352 18.3049485,2.33822712 C19.7002095,1.21378656 18.3049485,-0.954959431 16.7130548,0.468712173 C15.9538439,1.14769397 12.7510928,3.98370665 9.60824948,6.76483653 L11.1109945,8.55573836 Z M1.5602252,16.1384725 C0.770061949,16.5593581 0.0813994359,16.8821533 0.00791701403,16.7726649 C-0.0624139727,16.6678722 0.344945212,16.0401843 0.86800196,15.313513 L1.5602252,16.1384725 Z" id="Combined-Shape"></path>
                    <path d="M17.6203904,2.89434192 L18.0503426,2.51824755 C18.0503426,2.51824755 18.7532221,3.01740488 17.9011451,3.78891148 C17.049068,4.56041809 13.3057197,7.78252711 13.3057197,7.78252711 C13.3057197,7.78252711 12.8643005,8.18620324 13.0688417,8.45905025 C13.273383,8.73189726 12.9071742,9.2120277 12.7504295,9.00293988 C12.5409094,8.72345299 12.2894677,8.18390221 12.9726125,7.58633142 C13.6557573,6.98876064 17.4007547,3.71287946 17.694535,3.45589952 C17.9883153,3.19891959 17.6203904,2.89434192 17.6203904,2.89434192" id="Path-12"></path>
                </g>
            </g>
        </g>
    </g>
</svg>