<?xml version="1.0" encoding="UTF-8" standalone="no"?>
<svg width="83px" height="102px" viewBox="0 0 83 102" version="1.1" xmlns="http://www.w3.org/2000/svg" xmlns:xlink="http://www.w3.org/1999/xlink">
    <!-- Generator: Sketch 39.1 (31720) - http://www.bohemiancoding.com/sketch -->
    <title>rar</title>
    <desc>Created with Sketch.</desc>
    <defs>
        <linearGradient x1="0%" y1="0%" x2="100%" y2="100%" id="linearGradient-1">
            <stop stop-color="#F6F6F6" offset="0%"></stop>
            <stop stop-color="#CECECE" offset="100%"></stop>
        </linearGradient>
        <linearGradient x1="21.3994966%" y1="80.1338005%" x2="50%" y2="50%" id="linearGradient-2">
            <stop stop-color="#EEEEEE" offset="0%"></stop>
            <stop stop-color="#E5E4E4" offset="100%"></stop>
        </linearGradient>
    </defs>
    <g id="Icons" stroke="none" stroke-width="1" fill="none" fill-rule="evenodd">
        <g id="rar">
            <path d="M53.9462592,0 L0,0 L0,102 L83,102 L83,28.0763718 L53.9462592,28.076373 L53.9462592,-1.11022302e-16 Z" id="Combined-Shape" fill="url(#linearGradient-1)"></path>
            <polygon id="Path-2-Copy" fill="url(#linearGradient-2)" points="56.4957983 0 56.4957983 25.6054138 82.9155003 25.6054127"></polygon>
            <text id="RAR" font-family="SourceSansPro-Light, Source Sans Pro" font-size="20" font-weight="300" fill="#6B6B6B">
                <tspan x="26" y="90">RAR</tspan>
            </text>
            <g id="RarLogo" transform="translate(22.000000, 39.000000)">
                <rect id="Rectangle-54" fill="#2E7B2A" x="6.84684685" y="21.1707317" width="31.1531532" height="6.82926829"></rect>
                <rect id="Rectangle-54-Copy" fill="#38297B" x="6.84684685" y="13.3170732" width="31.1531532" height="6.82926829"></rect>
                <rect id="Rectangle-54-Copy-3" fill="#8B4276" x="6.84684685" y="5.46341463" width="31.1531532" height="6.82926829"></rect>
                <polygon id="Rectangle-54-Copy-3" fill="#8B4276" points="31.4934914 1.13686838e-13 38 5.46341463 6.84684685 5.46341463 0.340338263 1.13686838e-13"></polygon>
                <polygon id="Rectangle-54" fill="#F5F5F5" points="0.342342342 15.7073171 0.342342342 22.5365854 6.84684685 27.9915598 6.84684685 21.1622915"></polygon>
                <polygon id="Rectangle-54-Copy-2" fill="#F5F5F5" points="0.342342342 7.85365854 0.342342342 14.6829268 6.84684685 20.1379013 6.84684685 13.308633"></polygon>
                <polygon id="Rectangle-54-Copy-4" fill="#F5F5F5" points="0.342342342 0 0.342342342 6.82926829 6.84684685 12.2842427 6.84684685 5.45497442"></polygon>
            </g>
        </g>
    </g>
</svg>