<?xml version="1.0" encoding="UTF-8" standalone="no"?>
<svg width="83px" height="102px" viewBox="0 0 83 102" version="1.1" xmlns="http://www.w3.org/2000/svg" xmlns:xlink="http://www.w3.org/1999/xlink">
    <!-- Generator: Sketch 39.1 (31720) - http://www.bohemiancoding.com/sketch -->
    <title>rtf</title>
    <desc>Created with Sketch.</desc>
    <defs>
        <linearGradient x1="0%" y1="0%" x2="100%" y2="100%" id="linearGradient-1">
            <stop stop-color="#F6F6F6" offset="0%"></stop>
            <stop stop-color="#CECECE" offset="100%"></stop>
        </linearGradient>
        <linearGradient x1="21.3994966%" y1="80.1338005%" x2="50%" y2="50%" id="linearGradient-2">
            <stop stop-color="#EEEEEE" offset="0%"></stop>
            <stop stop-color="#E5E4E4" offset="100%"></stop>
        </linearGradient>
    </defs>
    <g id="Icons" stroke="none" stroke-width="1" fill="none" fill-rule="evenodd">
        <g id="rtf">
            <path d="M53.9462592,0 L0,0 L0,102 L83,102 L83,28.0763718 L53.9462592,28.076373 L53.9462592,-1.11022302e-16 Z" id="Combined-Shape" fill="url(#linearGradient-1)"></path>
            <polygon id="Path-2-Copy" fill="url(#linearGradient-2)" points="56.4957983 0 56.4957983 25.6054138 82.9155003 25.6054127"></polygon>
            <text id="RTF" font-family="SourceSansPro-Light, Source Sans Pro" font-size="20" font-weight="300" fill="#6B6B6B">
                <tspan x="24" y="90">RTF</tspan>
            </text>
            <g id="TextAndPic" transform="translate(13.000000, 32.000000)">
                <rect id="Rectangle-27" fill="#9B9B9B" x="8.17075982" y="0" width="48.6307314" height="4" rx="2"></rect>
                <rect id="Rectangle-27-Copy" fill="#9B9B9B" x="0.198508775" y="6" width="56.6029824" height="4" rx="2"></rect>
                <rect id="Rectangle-27-Copy-2" fill="#9B9B9B" x="0.198508775" y="12" width="56.6029824" height="4" rx="2"></rect>
                <rect id="Rectangle-27-Copy-3" fill="#9B9B9B" x="0.198508775" y="18" width="35.9200513" height="4" rx="2"></rect>
                <rect id="Rectangle-27-Copy-4" fill="#9B9B9B" x="0.198508775" y="24" width="35.9200513" height="4" rx="2"></rect>
                <rect id="Rectangle-27-Copy-5" fill="#9B9B9B" x="0.198508775" y="30" width="35.9200513" height="4" rx="2"></rect>
                <rect id="Rectangle-27-Copy-6" fill="#9B9B9B" x="0.198508775" y="36" width="56.6029824" height="4" rx="2"></rect>
                <rect id="Rectangle-28" fill="#839FBA" x="38.4653138" y="19" width="18.3361774" height="14"></rect>
            </g>
        </g>
    </g>
</svg>