<?xml version="1.0" encoding="UTF-8" standalone="no"?>
<svg width="83px" height="102px" viewBox="0 0 83 102" version="1.1" xmlns="http://www.w3.org/2000/svg" xmlns:xlink="http://www.w3.org/1999/xlink">
    <!-- Generator: Sketch 39.1 (31720) - http://www.bohemiancoding.com/sketch -->
    <title>wav</title>
    <desc>Created with Sketch.</desc>
    <defs>
        <linearGradient x1="0%" y1="0%" x2="100%" y2="100%" id="linearGradient-1">
            <stop stop-color="#F6F6F6" offset="0%"></stop>
            <stop stop-color="#CECECE" offset="100%"></stop>
        </linearGradient>
        <linearGradient x1="21.3994966%" y1="80.1338005%" x2="50%" y2="50%" id="linearGradient-2">
            <stop stop-color="#EEEEEE" offset="0%"></stop>
            <stop stop-color="#E5E4E4" offset="100%"></stop>
        </linearGradient>
    </defs>
    <g id="Icons" stroke="none" stroke-width="1" fill="none" fill-rule="evenodd">
        <g id="wav">
            <path d="M53.9462592,0 L0,0 L0,102 L83,102 L83,28.0763718 L53.9462592,28.076373 L53.9462592,-1.11022302e-16 Z" id="Combined-Shape" fill="url(#linearGradient-1)"></path>
            <polygon id="Path-2-Copy" fill="url(#linearGradient-2)" points="56.4957983 0 56.4957983 25.6054138 82.9155003 25.6054127"></polygon>
            <text id="WAV" font-family="SourceSansPro-Light, Source Sans Pro" font-size="20" font-weight="300" fill="#6B6B6B">
                <tspan x="23" y="88">WAV</tspan>
            </text>
            <g id="Headphones" transform="translate(23.000000, 30.000000)" fill="#46789E">
                <path d="M32.8969055,23.04 C33.517804,21.3587185 33.8571429,19.5393047 33.8571429,17.64 C33.8571429,9.09063207 26.9815158,2.16 18.5,2.16 C10.0184842,2.16 3.14285714,9.09063207 3.14285714,17.64 C3.14285714,19.5393047 3.48219598,21.3587185 4.10309454,23.04 L8.8086333,23.04 C7.92924422,21.4398287 7.42857143,19.5988513 7.42857143,17.64 C7.42857143,11.4765022 12.3854188,6.48 18.5,6.48 C24.6145812,6.48 29.5714286,11.4765022 29.5714286,17.64 C29.5714286,19.5988513 29.0707558,21.4398287 28.1913667,23.04 L32.8969055,23.04 Z" id="Combined-Shape"></path>
                <path d="M29.0351855,3.81545153 C26.2006268,1.66099532 22.5210287,0.36 18.4996986,0.36 C14.474746,0.36 10.7921413,1.66334033 7.95655344,3.821276 L12.3783071,9.83140521 C13.892203,8.35321388 16.0741057,7.42546979 18.4996986,7.42546979 C21.0441765,7.42546979 23.3204908,8.44638508 24.8388265,10.0526783 L29.0351855,3.81545153 Z" id="Combined-Shape"></path>
                <g id="Group" transform="translate(22.142857, 20.160000)">
                    <path d="M1.31519949,7.52972454 C1.31519949,7.52972454 3.92660418,3.84188028 8.5608626,3.84188028 C13.195121,3.84188028 15.8065257,7.52972454 15.8065257,7.52972454 L15.8065257,11.6022471 L1.31519949,11.6022471 L1.31519949,7.52972454 Z" id="Rectangle-20" transform="translate(8.560863, 7.722064) rotate(97.000000) translate(-8.560863, -7.722064) "></path>
                    <rect id="Rectangle-22" transform="translate(2.895125, 6.959320) rotate(7.000000) translate(-2.895125, -6.959320) " x="1.82369651" y="0.08034405" width="2.14285714" height="13.7579512"></rect>
                </g>
                <g id="Group-Copy" transform="translate(7.857143, 28.160000) scale(-1, 1) translate(-7.857143, -28.160000) translate(0.857143, 20.160000)">
                    <path d="M1.31519949,7.52972454 C1.31519949,7.52972454 3.92660418,3.84188028 8.5608626,3.84188028 C13.195121,3.84188028 15.8065257,7.52972454 15.8065257,7.52972454 L15.8065257,11.6022471 L1.31519949,11.6022471 L1.31519949,7.52972454 Z" id="Rectangle-20" transform="translate(8.560863, 7.722064) rotate(97.000000) translate(-8.560863, -7.722064) "></path>
                    <rect id="Rectangle-22" transform="translate(2.895125, 6.959320) rotate(7.000000) translate(-2.895125, -6.959320) " x="1.82369651" y="0.08034405" width="2.14285714" height="13.7579512"></rect>
                </g>
            </g>
        </g>
    </g>
</svg>