<?xml version="1.0" encoding="UTF-8" standalone="no"?>
<svg width="83px" height="102px" viewBox="0 0 83 102" version="1.1" xmlns="http://www.w3.org/2000/svg" xmlns:xlink="http://www.w3.org/1999/xlink">
    <!-- Generator: Sketch 39.1 (31720) - http://www.bohemiancoding.com/sketch -->
    <title>wmv</title>
    <desc>Created with Sketch.</desc>
    <defs>
        <linearGradient x1="0%" y1="0%" x2="100%" y2="100%" id="linearGradient-1">
            <stop stop-color="#F6F6F6" offset="0%"></stop>
            <stop stop-color="#CECECE" offset="100%"></stop>
        </linearGradient>
        <linearGradient x1="21.3994966%" y1="80.1338005%" x2="50%" y2="50%" id="linearGradient-2">
            <stop stop-color="#EEEEEE" offset="0%"></stop>
            <stop stop-color="#E5E4E4" offset="100%"></stop>
        </linearGradient>
        <linearGradient x1="80.7990264%" y1="83.613845%" x2="17.428094%" y2="12.9812593%" id="linearGradient-3">
            <stop stop-color="#D3D3D3" offset="0%"></stop>
            <stop stop-color="#F2F2F2" offset="100%"></stop>
        </linearGradient>
        <linearGradient x1="12.9538326%" y1="0%" x2="12.9538327%" y2="93.9507936%" id="linearGradient-4">
            <stop stop-color="#2E7CA3" offset="0%"></stop>
            <stop stop-color="#343165" offset="100%"></stop>
        </linearGradient>
    </defs>
    <g id="Icons" stroke="none" stroke-width="1" fill="none" fill-rule="evenodd">
        <g id="wmv">
            <path d="M53.9462592,0 L0,0 L0,102 L83,102 L83,28.0763718 L53.9462592,28.076373 L53.9462592,-1.11022302e-16 Z" id="Combined-Shape" fill="url(#linearGradient-1)"></path>
            <polygon id="Path-2-Copy" fill="url(#linearGradient-2)" points="56.4957983 0 56.4957983 25.6054138 82.9155003 25.6054127"></polygon>
            <text id="WMV" font-family="SourceSansPro-Light, Source Sans Pro" font-size="20" font-weight="300" fill="#6B6B6B">
                <tspan x="22" y="90">WMV</tspan>
            </text>
            <g id="WmvLogo" transform="translate(22.000000, 32.000000)">
                <path d="M19.5,0 C8.73044738,0 0,8.73044738 0,19.5 L19.5,19.5 L19.5,1.33226763e-14 Z" id="Combined-Shape" fill="#CB1818"></path>
                <path d="M19.5,19.5 C8.73044738,19.5 -2.27373675e-13,28.2304474 -2.27373675e-13,39 L19.5,39 L19.5,19.5 Z" id="Combined-Shape" fill="#366EDC" transform="translate(9.750000, 29.250000) rotate(270.000000) translate(-9.750000, -29.250000) "></path>
                <path d="M39,19.5 C28.2304474,19.5 19.5,28.2304474 19.5,39 L39,39 L39,19.5 Z" id="Combined-Shape" fill="#DCCB36" transform="translate(29.250000, 29.250000) rotate(180.000000) translate(-29.250000, -29.250000) "></path>
                <path d="M39,0 C28.2304474,0 19.5,8.73044738 19.5,19.5 L39,19.5 L39,-8.8817842e-16 Z" id="Combined-Shape" fill="#34CB18" transform="translate(29.250000, 9.750000) rotate(90.000000) translate(-29.250000, -9.750000) "></path>
                <circle id="Oval-10" fill="url(#linearGradient-3)" cx="19.5" cy="19.5" r="17.1363636"></circle>
                <polygon id="Triangle-4" fill="url(#linearGradient-4)" points="13.5909091 26.5909091 13.5909091 12.4090909 27.7727273 19.5"></polygon>
            </g>
        </g>
    </g>
</svg>