<?xml version="1.0" encoding="UTF-8" standalone="no"?>
<svg width="83px" height="102px" viewBox="0 0 83 102" version="1.1" xmlns="http://www.w3.org/2000/svg" xmlns:xlink="http://www.w3.org/1999/xlink">
    <!-- Generator: Sketch 39.1 (31720) - http://www.bohemiancoding.com/sketch -->
    <title>zip</title>
    <desc>Created with Sketch.</desc>
    <defs>
        <linearGradient x1="0%" y1="0%" x2="100%" y2="100%" id="linearGradient-1">
            <stop stop-color="#F6F6F6" offset="0%"></stop>
            <stop stop-color="#CECECE" offset="100%"></stop>
        </linearGradient>
        <linearGradient x1="21.3994966%" y1="80.1338005%" x2="50%" y2="50%" id="linearGradient-2">
            <stop stop-color="#EEEEEE" offset="0%"></stop>
            <stop stop-color="#E5E4E4" offset="100%"></stop>
        </linearGradient>
        <linearGradient x1="50%" y1="0%" x2="50%" y2="100%" id="linearGradient-3">
            <stop stop-color="#65D4F8" offset="0%"></stop>
            <stop stop-color="#35A9ED" offset="100%"></stop>
        </linearGradient>
        <rect id="path-4" x="0" y="16" width="2.5" height="1"></rect>
        <mask id="mask-5" maskContentUnits="userSpaceOnUse" maskUnits="objectBoundingBox" x="0" y="0" width="2.5" height="1" fill="white">
            <use xlink:href="#path-4"></use>
        </mask>
        <rect id="path-6" x="0" y="14" width="2.5" height="1"></rect>
        <mask id="mask-7" maskContentUnits="userSpaceOnUse" maskUnits="objectBoundingBox" x="0" y="0" width="2.5" height="1" fill="white">
            <use xlink:href="#path-6"></use>
        </mask>
        <rect id="path-8" x="0" y="12" width="2.5" height="1"></rect>
        <mask id="mask-9" maskContentUnits="userSpaceOnUse" maskUnits="objectBoundingBox" x="0" y="0" width="2.5" height="1" fill="white">
            <use xlink:href="#path-8"></use>
        </mask>
        <rect id="path-10" x="0" y="10" width="2.5" height="1"></rect>
        <mask id="mask-11" maskContentUnits="userSpaceOnUse" maskUnits="objectBoundingBox" x="0" y="0" width="2.5" height="1" fill="white">
            <use xlink:href="#path-10"></use>
        </mask>
        <rect id="path-12" x="0" y="8" width="2.5" height="1"></rect>
        <mask id="mask-13" maskContentUnits="userSpaceOnUse" maskUnits="objectBoundingBox" x="0" y="0" width="2.5" height="1" fill="white">
            <use xlink:href="#path-12"></use>
        </mask>
        <rect id="path-14" x="0" y="6" width="2.5" height="1"></rect>
        <mask id="mask-15" maskContentUnits="userSpaceOnUse" maskUnits="objectBoundingBox" x="0" y="0" width="2.5" height="1" fill="white">
            <use xlink:href="#path-14"></use>
        </mask>
        <rect id="path-16" x="0" y="4" width="2.5" height="1"></rect>
        <mask id="mask-17" maskContentUnits="userSpaceOnUse" maskUnits="objectBoundingBox" x="0" y="0" width="2.5" height="1" fill="white">
            <use xlink:href="#path-16"></use>
        </mask>
        <rect id="path-18" x="0" y="2" width="2.5" height="1"></rect>
        <mask id="mask-19" maskContentUnits="userSpaceOnUse" maskUnits="objectBoundingBox" x="0" y="0" width="2.5" height="1" fill="white">
            <use xlink:href="#path-18"></use>
        </mask>
        <rect id="path-20" x="0" y="0" width="2.5" height="1"></rect>
        <mask id="mask-21" maskContentUnits="userSpaceOnUse" maskUnits="objectBoundingBox" x="0" y="0" width="2.5" height="1" fill="white">
            <use xlink:href="#path-20"></use>
        </mask>
        <rect id="path-22" x="2.5" y="17" width="2.5" height="1"></rect>
        <mask id="mask-23" maskContentUnits="userSpaceOnUse" maskUnits="objectBoundingBox" x="0" y="0" width="2.5" height="1" fill="white">
            <use xlink:href="#path-22"></use>
        </mask>
        <rect id="path-24" x="2.5" y="15" width="2.5" height="1"></rect>
        <mask id="mask-25" maskContentUnits="userSpaceOnUse" maskUnits="objectBoundingBox" x="0" y="0" width="2.5" height="1" fill="white">
            <use xlink:href="#path-24"></use>
        </mask>
        <rect id="path-26" x="2.5" y="13" width="2.5" height="1"></rect>
        <mask id="mask-27" maskContentUnits="userSpaceOnUse" maskUnits="objectBoundingBox" x="0" y="0" width="2.5" height="1" fill="white">
            <use xlink:href="#path-26"></use>
        </mask>
        <rect id="path-28" x="2.5" y="11" width="2.5" height="1"></rect>
        <mask id="mask-29" maskContentUnits="userSpaceOnUse" maskUnits="objectBoundingBox" x="0" y="0" width="2.5" height="1" fill="white">
            <use xlink:href="#path-28"></use>
        </mask>
        <rect id="path-30" x="2.5" y="9" width="2.5" height="1"></rect>
        <mask id="mask-31" maskContentUnits="userSpaceOnUse" maskUnits="objectBoundingBox" x="0" y="0" width="2.5" height="1" fill="white">
            <use xlink:href="#path-30"></use>
        </mask>
        <rect id="path-32" x="2.5" y="7" width="2.5" height="1"></rect>
        <mask id="mask-33" maskContentUnits="userSpaceOnUse" maskUnits="objectBoundingBox" x="0" y="0" width="2.5" height="1" fill="white">
            <use xlink:href="#path-32"></use>
        </mask>
        <rect id="path-34" x="2.5" y="5" width="2.5" height="1"></rect>
        <mask id="mask-35" maskContentUnits="userSpaceOnUse" maskUnits="objectBoundingBox" x="0" y="0" width="2.5" height="1" fill="white">
            <use xlink:href="#path-34"></use>
        </mask>
        <rect id="path-36" x="2.5" y="3" width="2.5" height="1"></rect>
        <mask id="mask-37" maskContentUnits="userSpaceOnUse" maskUnits="objectBoundingBox" x="0" y="0" width="2.5" height="1" fill="white">
            <use xlink:href="#path-36"></use>
        </mask>
        <rect id="path-38" x="2.5" y="1" width="2.5" height="1"></rect>
        <mask id="mask-39" maskContentUnits="userSpaceOnUse" maskUnits="objectBoundingBox" x="0" y="0" width="2.5" height="1" fill="white">
            <use xlink:href="#path-38"></use>
        </mask>
    </defs>
    <g id="Icons" stroke="none" stroke-width="1" fill="none" fill-rule="evenodd">
        <g id="zip">
            <path d="M53.9462592,0 L0,0 L0,102 L83,102 L83,28.0763718 L53.9462592,28.076373 L53.9462592,-1.11022302e-16 Z" id="Combined-Shape" fill="url(#linearGradient-1)"></path>
            <polygon id="Path-2-Copy" fill="url(#linearGradient-2)" points="56.4957983 0 56.4957983 25.6054138 82.9155003 25.6054127"></polygon>
            <text id="ZIP" font-family="SourceSansPro-Light, Source Sans Pro" font-size="20" font-weight="300" fill="#6B6B6B">
                <tspan x="29" y="90">ZIP</tspan>
            </text>
            <g id="Group-6" transform="translate(21.000000, 31.000000)">
                <rect id="Rectangle-42" fill="url(#linearGradient-3)" x="0" y="0" width="42" height="42" rx="10"></rect>
                <g id="Zipline" transform="translate(19.000000, 6.000000)" stroke="#979797" stroke-width="2" fill="#D8D8D8">
                    <use id="Rectangle-45" mask="url(#mask-5)" xlink:href="#path-4"></use>
                    <use id="Rectangle-45-Copy-10" mask="url(#mask-7)" xlink:href="#path-6"></use>
                    <use id="Rectangle-45-Copy-11" mask="url(#mask-9)" xlink:href="#path-8"></use>
                    <use id="Rectangle-45-Copy-12" mask="url(#mask-11)" xlink:href="#path-10"></use>
                    <use id="Rectangle-45-Copy-13" mask="url(#mask-13)" xlink:href="#path-12"></use>
                    <use id="Rectangle-45-Copy-14" mask="url(#mask-15)" xlink:href="#path-14"></use>
                    <use id="Rectangle-45-Copy-15" mask="url(#mask-17)" xlink:href="#path-16"></use>
                    <use id="Rectangle-45-Copy-16" mask="url(#mask-19)" xlink:href="#path-18"></use>
                    <use id="Rectangle-45-Copy-17" mask="url(#mask-21)" xlink:href="#path-20"></use>
                    <use id="Rectangle-45-Copy" mask="url(#mask-23)" xlink:href="#path-22"></use>
                    <use id="Rectangle-45-Copy-2" mask="url(#mask-25)" xlink:href="#path-24"></use>
                    <use id="Rectangle-45-Copy-3" mask="url(#mask-27)" xlink:href="#path-26"></use>
                    <use id="Rectangle-45-Copy-4" mask="url(#mask-29)" xlink:href="#path-28"></use>
                    <use id="Rectangle-45-Copy-5" mask="url(#mask-31)" xlink:href="#path-30"></use>
                    <use id="Rectangle-45-Copy-6" mask="url(#mask-33)" xlink:href="#path-32"></use>
                    <use id="Rectangle-45-Copy-7" mask="url(#mask-35)" xlink:href="#path-34"></use>
                    <use id="Rectangle-45-Copy-8" mask="url(#mask-37)" xlink:href="#path-36"></use>
                    <use id="Rectangle-45-Copy-9" mask="url(#mask-39)" xlink:href="#path-38"></use>
                </g>
                <path d="M19,24.9953976 C19,24.4456547 19.4437166,24 19.9998075,24 L23.0001925,24 C23.5523709,24 24,24.4556644 24,24.9953976 L24,33.0046024 C24,33.5543453 23.5562834,34 23.0001925,34 L19.9998075,34 C19.4476291,34 19,33.5443356 19,33.0046024 L19,24.9953976 Z M21.5,27.5714286 C22.0917337,27.5714286 22.5714286,27.0917337 22.5714286,26.5 C22.5714286,25.9082663 22.0917337,25.4285714 21.5,25.4285714 C20.9082663,25.4285714 20.4285714,25.9082663 20.4285714,26.5 C20.4285714,27.0917337 20.9082663,27.5714286 21.5,27.5714286 Z M20.4285714,30.0704114 C20.4285714,29.4792395 20.9041409,29 21.5,29 C22.0917337,29 22.5714286,29.4750213 22.5714286,30.0704114 L22.5714286,32.2153028 C22.5714286,32.8064748 22.0958591,33.2857143 21.5,33.2857143 C20.9082663,33.2857143 20.4285714,32.810693 20.4285714,32.2153028 L20.4285714,30.0704114 Z" id="Combined-Shape" fill="#454545"></path>
                <polygon id="Triangle-7" fill="#2E2E2E" transform="translate(21.500000, 5.000000) scale(1, -1) translate(-21.500000, -5.000000) " points="21.5 0 34 10 9 10"></polygon>
            </g>
        </g>
    </g>
</svg>